<svg id="Layer_1" data-name="Layer 1" xmlns="http://www.w3.org/2000/svg" viewBox="0 0 1800.42 885.71"><defs><style>.cls-1{fill:#2dccd3;}.cls-2{fill:#0072ce;}.cls-3{fill:#10069f;}.cls-4{fill:#101820;}</style></defs><title>FAM-Logomark-Primary-Colour-RGB</title><polygon class="cls-1" points="0.42 426.47 0.42 426.47 0.42 0 658.4 0 420.29 426.47 0.42 426.47"/><polygon class="cls-2" points="1119.16 426.47 489.16 426.47 804.16 0 804.16 0 1119.16 426.47"/><polygon class="cls-3" points="1800.42 426.47 1188.03 426.47 949.91 0 1800.42 0 1800.42 426.47"/><polygon class="cls-4" points="0.43 695.17 57.29 695.17 57.29 638.58 234.92 638.58 234.92 594.04 57.29 594.04 57.29 564.95 240.16 564.95 240.16 516.48 0.43 516.48 0.43 695.17"/><path class="cls-4" d="M395.29,674.41q-6.71,3.11-13,6.3l-3.94-22.28H332V792.31h52.66V717c7.56-2.62,15-4.88,22.4-6.73a254.65,254.65,0,0,1,34.46-6.16,357.44,357.44,0,0,1,39-2V654.76a181.84,181.84,0,0,0-44.93,5.5A234.12,234.12,0,0,0,395.29,674.41Z" transform="translate(-59.79 -97.14)"/><path class="cls-4" d="M687.11,668.39q-14-7.08-33.54-10.35A265.19,265.19,0,0,0,610,654.76q-34.59,0-58.3,7.34t-35.89,22.79q-12.18,15.47-12.18,40.35,0,24.63,11.39,40.35t35.5,23q24.1,7.33,62.36,7.34,17.29,0,35.63-1.31t35.24-3.54a264.77,264.77,0,0,0,29.48-5.37L702.7,748q-8.13,1.05-20.44,2.62t-28.43,2.62q-16.11,1.05-36,1.05t-32.36-1.18Q573,752,566.19,748.69a18.31,18.31,0,0,1-9.43-9.56q-.4-1-.75-2.1H714.75c.17-1.22.35-3.18.52-5.89s.31-5.59.4-8.65.13-5.63.13-7.73q0-16.25-7.34-27.77T687.11,668.39ZM574.84,692.88q11.79-3,33.27-3,24.1,0,36.16,3t16.24,9.57a24.93,24.93,0,0,1,3.16,7.59h-108a26.5,26.5,0,0,1,2.92-6.94Q563,695.9,574.84,692.88Z" transform="translate(-59.79 -97.14)"/><path class="cls-4" d="M915.73,713.71q-15.33-4.71-37.86-6L812.11,704q-6.3-.53-10.48-1.18a13.09,13.09,0,0,1-6.16-2.23,5.68,5.68,0,0,1-2-4.71q0-3.15,3.28-4.72c2.18-1,6.11-1.74,11.79-2.1s13.58-.52,23.71-.52q17.29,0,34.71,1.18t33.8,3.14q16.38,2,29.74,4.59l7.86-34.06q-7.6-1.57-18.6-3.15T896,657.38q-12.84-1.3-25.94-2.22t-25.15-.92q-32.49,0-54.89,3.4t-34.06,12.45q-11.67,9-11.66,26.59,0,14.42,5.89,24t19.52,14.41q13.62,4.84,36.94,6.15l66,3.41a143.61,143.61,0,0,1,14.67,1.44q5.51.91,7.86,2.36t2.36,5.11c0,1.92-1.1,3.45-3.28,4.58s-6,1.93-11.39,2.36-12.93.65-22.54.65q-20.7,0-40.34-1.7t-36.16-4.19q-16.5-2.49-28-4.85l-8.91,34.06q10.47,2.35,26.72,5.11t36.16,4.59q19.9,1.83,40.61,1.83,33,0,54.23-3.54t31.57-12.7q10.35-9.18,10.35-25.94,0-16.24-7.73-25.81T915.73,713.71Z" transform="translate(-59.79 -97.14)"/><path class="cls-4" d="M1160.35,661.18q-16.63-6.42-40.74-6.42a223.42,223.42,0,0,0-39.95,3.54,280.44,280.44,0,0,0-37.47,9.43q-5.57,1.83-10.87,3.74V595.81H978.66v196.5h52.66V710q8.85-2.33,17.29-4.26,30.39-6.93,53.71-6.94,12.84,0,21.49,3t13.1,9.17q4.44,6.16,4.45,15.85v65.5H1194V717.64q0-22.26-8.51-36.15T1160.35,661.18Z" transform="translate(-59.79 -97.14)"/><path class="cls-4" d="M1465.71,613.63h-58.42l-115,178.68h68.12L1381,758.78h127.46l20.66,33.53H1598L1482.74,613.63Zm-60.56,105.85,39.5-64.27,39.59,64.27Z" transform="translate(-59.79 -97.14)"/><rect class="cls-4" x="1558.93" y="561.29" width="52.66" height="133.88"/><rect class="cls-4" x="1558.93" y="502.6" width="52.66" height="41.66"/><path class="cls-4" d="M1813.91,660.26a234.12,234.12,0,0,0-40.35,14.15q-6.7,3.11-13,6.3l-3.94-22.28h-46.37V792.31H1763V717c7.56-2.62,15-4.88,22.4-6.73a254.65,254.65,0,0,1,34.46-6.16,357.3,357.3,0,0,1,39-2V654.76A181.84,181.84,0,0,0,1813.91,660.26Z" transform="translate(-59.79 -97.14)"/><polygon class="cls-4" points="97.11 863.81 32.63 785.46 0 785.46 0 885.71 26.75 885.71 26.75 817.06 83.29 885.71 110.34 885.71 166.88 817.21 166.88 885.71 193.63 885.71 193.63 785.46 161.73 785.46 97.11 863.81"/><polygon class="cls-4" points="473.88 885.71 616.63 885.71 616.63 864.69 500.63 864.69 500.63 843.67 613.84 843.67 613.84 826.32 500.63 826.32 500.63 806.48 616.63 806.48 616.63 785.46 473.88 785.46 473.88 885.71"/><path class="cls-4" d="M1097.85,893.48a48.91,48.91,0,0,0-18.23-8.31,103,103,0,0,0-24-2.57H950V982.86h105.56a107.63,107.63,0,0,0,23.88-2.43,47.14,47.14,0,0,0,18.23-8.16,36.41,36.41,0,0,0,11.61-15.43q4.05-9.71,4-24.26,0-14.25-4-23.81A36.15,36.15,0,0,0,1097.85,893.48Zm-15.44,55.71a17.66,17.66,0,0,1-10.43,8.38q-7.14,2.35-18.89,2.35H976.78V905.53h76.31q11.76,0,18.89,2.36a17.77,17.77,0,0,1,10.43,8.23q3.31,5.88,3.31,16.46T1082.41,949.19Z" transform="translate(-59.79 -97.14)"/><rect class="cls-4" x="1329.88" y="785.46" width="26.75" height="100.25"/><path class="cls-4" d="M1825.87,982.86h33.93L1791.16,882.6H1755l-67.63,100.26h32.62l13.22-20.29h79.45Zm-80.44-39.11,27.41-42,27.47,42Z" transform="translate(-59.79 -97.14)"/></svg>