<?xml version="1.0" encoding="utf-8"?>
<!-- Generator: Adobe Illustrator 24.0.2, SVG Export Plug-In . SVG Version: 6.00 Build 0)  -->
<svg version="1.1" id="Layer_1" xmlns="http://www.w3.org/2000/svg" xmlns:xlink="http://www.w3.org/1999/xlink" x="0px" y="0px"
	 viewBox="0 0 1800 802.9" style="enable-background:new 0 0 1800 802.9;" xml:space="preserve">
<style type="text/css">
	.st0{fill:#50C4C9;}
	.st1{fill:#0077BF;}
	.st2{fill:#233A93;}
	.st3{fill:#000006;}
</style>
<title>FAM-Logomark-Primary-Colour-CMYK</title>
<polygon class="st0" points="0,426.5 0,426.5 0,0 658,0 419.9,426.5 "/>
<polygon class="st1" points="1118.7,426.5 488.7,426.5 803.7,0 803.7,0 "/>
<polygon class="st2" points="1800,426.5 1187.6,426.5 949.5,0 1800,0 "/>
<path class="st3" d="M76.4,802.9H0V516.5h414.3V582H76.4v62.2h329.9v60.1H76.4V802.9z"/>
<path class="st3" d="M975.4,802.9h92.4L858,516.5H756.3L546.5,802.9H638l41.4-58H934L975.4,802.9z M717.8,691.2l88.8-124.4l89,124.4
	H717.8z"/>
<path class="st3" d="M1305.6,802.9h-76.4V516.5h93.2l192.5,223.9l193.9-223.9h91.1v286.5h-76.4V607.2l-170.8,195.7h-77.3
	l-169.8-196.1V802.9z"/>
</svg>
