<svg class="h-[1em] w-[1em] -my-[calc((3/44)*100%)]" width="1024" height="1024"
  viewBox="0 0 1024 1024" fill="currentColor" xmlns="http://www.w3.org/2000/svg"
  style="--height:1em;font-size:var(--height)">
  <title>Calgary Municipal Land Corporation</title>
  <path
    d="M0 949.733H1023.75V73.3335H0V949.733ZM1010.43 936.611H13.1333V86.4562H1013.69L1010.43 936.611H1010.43Z"></path>
  <path
    d="M622.6 433.362V295.04H623.211L703.856 404.829L786.035 295.429H786.723L786.702 433.773L814.656 433.853L814.723 257.506L781.568 257.397L704.179 363.786L627.555 257.04L593.979 256.962L593.99 433.32L622.6 433.362Z"></path>
  <path
    d="M298.375 586.578L268.143 586.522L267.688 768.933L438.765 769.333L438.831 742.101L298.01 741.789L298.375 586.578Z"></path>
  <path
    d="M504.675 861.202H519.064V518.725H861.552V504.325H519.064V161.858H504.675V504.325H162.198V518.725H504.675V861.202Z"></path>
  <path
    d="M252.291 417.649C273.589 433.825 300.357 441.937 332.589 442.014C355.579 442.049 375.368 438.726 391.968 431.926C408.501 425.214 423.357 414.169 436.48 398.947L410.557 384.515C392.045 404.47 366.691 414.403 334.445 414.302C307.757 414.249 286.557 407.87 270.901 395.147C255.189 382.425 247.347 365.737 247.389 345.081C247.467 325.07 255.424 308.659 271.347 295.758C287.267 282.87 307.789 276.47 332.979 276.515C366.256 276.582 392.035 286.47 410.501 306.169L438.024 296.369C413.712 264.782 378.712 248.915 333.045 248.793C301.312 248.715 274.656 256.782 253.157 273.003C228.4 291.603 215.989 315.603 215.912 345.014C215.845 374.915 227.968 399.081 252.291 417.649Z"></path>
  <path
    d="M648.72 632.603C664.643 619.715 685.165 613.315 710.355 613.36C743.621 613.427 769.411 623.315 787.877 643.013L815.386 633.213C791.077 601.627 756.088 585.76 710.421 585.637C678.688 585.56 652.032 593.627 630.533 609.848C605.776 628.448 593.365 652.448 593.288 681.859C593.221 711.76 605.333 735.925 629.667 754.493C650.955 770.669 677.72 778.781 709.965 778.859C732.955 778.893 752.744 775.571 769.344 768.771C785.867 762.069 800.72 751.013 813.853 735.792L787.92 721.36C769.421 741.315 744.066 751.248 711.81 751.147C685.12 751.093 663.933 744.715 648.267 731.992C632.555 719.269 624.72 702.581 624.765 681.925C624.832 661.915 632.787 645.504 648.72 632.603Z"></path>
</svg>