<?xml version="1.0" encoding="UTF-8" standalone="no"?>
<svg
   xmlns:dc="http://purl.org/dc/elements/1.1/"
   xmlns:cc="http://creativecommons.org/ns#"
   xmlns:rdf="http://www.w3.org/1999/02/22-rdf-syntax-ns#"
   xmlns:svg="http://www.w3.org/2000/svg"
   xmlns="http://www.w3.org/2000/svg"
   xmlns:sodipodi="http://sodipodi.sourceforge.net/DTD/sodipodi-0.dtd"
   xmlns:inkscape="http://www.inkscape.org/namespaces/inkscape"
   version="1.1"
   id="Layer_1"
   x="0px"
   y="0px"
   viewBox="0 0 1000 477.91074"
   xml:space="preserve"
   sodipodi:docname="A.svg"
   width="1000"
   height="477.91074"
   inkscape:version="0.92.4 (5da689c313, 2019-01-14)"><metadata
   id="metadata7074"><rdf:RDF><cc:Work
       rdf:about=""><dc:format>image/svg+xml</dc:format><dc:type
         rdf:resource="http://purl.org/dc/dcmitype/StillImage" /><dc:title></dc:title></cc:Work></rdf:RDF></metadata><defs
   id="defs7072"><clipPath
     clipPathUnits="userSpaceOnUse"
     id="clipPath7349"><path
       d="m 25.403,700.567 h 103.731 v 47.031 H 25.403 Z"
       id="path7347"
       inkscape:connector-curvature="0" /></clipPath></defs><sodipodi:namedview
   pagecolor="#ffffff"
   bordercolor="#111111"
   borderopacity="1"
   objecttolerance="10"
   gridtolerance="10"
   guidetolerance="10"
   inkscape:pageopacity="0"
   inkscape:pageshadow="2"
   inkscape:window-width="1920"
   inkscape:window-height="1017"
   id="namedview7070"
   showgrid="false"
   fit-margin-top="0"
   fit-margin-left="0"
   fit-margin-right="0"
   fit-margin-bottom="0"
   inkscape:zoom="0.36932707"
   inkscape:cx="770.15952"
   inkscape:cy="328.89204"
   inkscape:window-x="1912"
   inkscape:window-y="-8"
   inkscape:window-maximized="1"
   inkscape:current-layer="Layer_1" />
<style
   type="text/css"
   id="style7031">
	.st0{fill:#777777;}
	.st1{fill:#6AEA91;}
</style>

<g
   id="g7343"
   transform="matrix(11.962123,0,0,-11.962123,-331.02065,8900.8829)"><g
     id="g7345"
     clip-path="url(#clipPath7349)"><g
       id="g7351"
       transform="translate(80.8052,736.0493)"><path
         d="m 0,0 c 0.12,0.328 0.269,0.904 0.269,0.904 h 0.02 c 0,0 0.149,-0.576 0.268,-0.904 L 1.472,-2.535 H -0.934 Z M -1.132,-3.13 H 1.68 L 2.484,-5.355 H 3.21 L 0.646,1.629 h -0.735 l -2.564,-6.984 h 0.726 z"
         style="fill:#3c3e43;fill-opacity:1;fill-rule:nonzero;stroke:none"
         id="path7353"
         inkscape:connector-curvature="0" /></g><g
       id="g7355"
       transform="translate(88.6655,731.3096)"><path
         d="M 0,0 H -3.24 V 6.369 H -3.926 V -0.616 H 0 Z"
         style="fill:#3c3e43;fill-opacity:1;fill-rule:nonzero;stroke:none"
         id="path7357"
         inkscape:connector-curvature="0" /></g><g
       id="g7359"
       transform="translate(91.6377,730.5742)"><path
         d="m 0,0 c 2.048,0 2.921,1.466 2.921,1.466 v 0.46 1.532 H 0.079 V 2.842 H 2.265 V 1.66 c 0,0 -0.834,-1.025 -2.195,-1.025 -1.591,0 -2.773,1.273 -2.773,2.991 0,1.66 1.143,2.962 2.833,2.962 1.271,0 2.086,-0.695 2.086,-0.695 l 0.368,0.516 c 0,0 -0.865,0.815 -2.484,0.815 -2.008,0 -3.518,-1.59 -3.518,-3.607 C -3.418,1.541 -1.908,0 0,0"
         style="fill:#3c3e43;fill-opacity:1;fill-rule:nonzero;stroke:none"
         id="path7361"
         inkscape:connector-curvature="0" /></g><g
       id="g7363"
       transform="translate(97.3213,736.0493)"><path
         d="m 0,0 c 0.119,0.328 0.269,0.904 0.269,0.904 h 0.018 c 0,0 0.15,-0.576 0.269,-0.904 L 1.47,-2.535 H -0.935 Z M -1.132,-3.13 H 1.68 L 2.483,-5.355 H 3.209 L 0.646,1.629 H -0.09 l -2.564,-6.984 h 0.726 z"
         style="fill:#3c3e43;fill-opacity:1;fill-rule:nonzero;stroke:none"
         id="path7365"
         inkscape:connector-curvature="0" /></g><g
       id="g7367"
       transform="translate(101.9121,737.063)"><path
         d="M 0,0 H 1.411 C 1.947,0 2.196,-0.06 2.405,-0.169 2.812,-0.388 3.04,-0.814 3.04,-1.391 3.04,-2.265 2.503,-2.813 1.659,-2.813 H 0 Z M 0,-3.428 H 1.759 L 3.338,-6.369 H 4.124 L 2.603,-3.558 C 2.494,-3.369 2.425,-3.28 2.425,-3.28 v 0.021 c 0.784,0.218 1.321,0.944 1.321,1.887 0,0.845 -0.397,1.511 -1.054,1.799 C 2.414,0.546 2.097,0.615 1.381,0.615 H -0.686 V -6.369 H 0 Z"
         style="fill:#3c3e43;fill-opacity:1;fill-rule:nonzero;stroke:none"
         id="path7369"
         inkscape:connector-curvature="0" /></g><g
       id="g7371"
       transform="translate(108.2202,730.6934)"><path
         d="M 0,0 H 0.695 V 3.001 L 3.041,6.986 H 2.266 L 0.785,4.452 C 0.566,4.084 0.357,3.616 0.357,3.616 H 0.338 c 0,0 -0.219,0.478 -0.427,0.836 L -1.57,6.986 H -2.355 L 0,3.001 Z"
         style="fill:#3c3e43;fill-opacity:1;fill-rule:nonzero;stroke:none"
         id="path7373"
         inkscape:connector-curvature="0" /></g><g
       id="g7375"
       transform="translate(73.9551,724.1069)"><path
         d="M 0,0 H -1.64 V 3.01 H 0.009 C 0.933,3.01 1.54,2.463 1.54,1.52 1.54,0.566 0.933,0 0,0 m 0.089,3.626 h -2.415 v -6.985 h 0.686 v 2.742 h 1.729 c 1.252,0 2.156,0.835 2.156,2.137 0,1.293 -0.904,2.106 -2.156,2.106"
         style="fill:#3c3e43;fill-opacity:1;fill-rule:nonzero;stroke:none"
         id="path7377"
         inkscape:connector-curvature="0" /></g><g
       id="g7379"
       transform="translate(82.6289,723.2422)"><path
         d="M 0,0 V 4.55 H -0.686 V 0.03 c 0,-1.223 -0.785,-1.948 -1.987,-1.948 -1.202,0 -1.977,0.725 -1.977,1.928 V 4.55 H -5.346 V 0 c 0,-1.55 1.093,-2.554 2.683,-2.554 C -1.083,-2.554 0,-1.55 0,0"
         style="fill:#3c3e43;fill-opacity:1;fill-rule:nonzero;stroke:none"
         id="path7381"
         inkscape:connector-curvature="0" /></g><g
       id="g7383"
       transform="translate(84.6357,724.1069)"><path
         d="m 0,0 h 1.779 c 0.815,0 1.382,-0.547 1.382,-1.382 0,-0.834 -0.528,-1.362 -1.373,-1.362 L 0,-2.744 Z M 0,3.01 H 1.689 C 2.434,3.01 2.881,2.533 2.881,1.818 2.881,1.093 2.405,0.596 1.7,0.596 H 0 Z m 3.875,-4.412 c 0,0.845 -0.456,1.531 -1.172,1.729 v 0.02 C 3.239,0.615 3.587,1.142 3.587,1.868 3.587,2.96 2.802,3.626 1.7,3.626 h -2.386 v -6.985 h 2.465 c 1.173,0 2.096,0.715 2.096,1.957"
         style="fill:#3c3e43;fill-opacity:1;fill-rule:nonzero;stroke:none"
         id="path7385"
         inkscape:connector-curvature="0" /></g><g
       id="g7387"
       transform="translate(89.7729,727.7334)"><path
         d="m 0,0 v -6.986 h 3.924 v 0.617 H 0.686 V 0 Z"
         style="fill:#3c3e43;fill-opacity:1;fill-rule:nonzero;stroke:none"
         id="path7389"
         inkscape:connector-curvature="0" /></g><path
       d="M 95.606,727.732 H 94.92 v -6.985 h 0.686 z"
       style="fill:#3c3e43;fill-opacity:1;fill-rule:nonzero;stroke:none"
       id="path7391"
       inkscape:connector-curvature="0" /><g
       id="g7393"
       transform="translate(73.3931,717.9731)"><path
         d="m 0,0 h -1.738 v -7.104 h 4.639 v 1.49 H 0 Z"
         style="fill:#3c3e43;fill-opacity:1;fill-rule:nonzero;stroke:none"
         id="path7395"
         inkscape:connector-curvature="0" /></g><path
       d="m 77.283,710.868 h 1.739 v 7.105 h -1.739 z"
       style="fill:#3c3e43;fill-opacity:1;fill-rule:nonzero;stroke:none"
       id="path7397"
       inkscape:connector-curvature="0" /><g
       id="g7399"
       transform="translate(82.9219,712.3589)"><path
         d="M 0,0 H -1.044 V 1.471 H 0.009 C 0.517,1.471 0.754,1.142 0.754,0.745 0.754,0.348 0.507,0 0,0 m -1.044,4.123 h 0.865 c 0.466,0 0.656,-0.278 0.656,-0.605 0,-0.338 -0.19,-0.657 -0.627,-0.657 H -1.044 Z M 1.421,2.225 v 0.02 c 0.537,0.309 0.825,0.915 0.825,1.511 0,1.222 -0.994,1.858 -2.415,1.858 H -2.782 V -1.49 h 2.613 c 1.41,0 2.702,0.566 2.702,2.116 0,0.626 -0.298,1.352 -1.112,1.599"
         style="fill:#3c3e43;fill-opacity:1;fill-rule:nonzero;stroke:none"
         id="path7401"
         inkscape:connector-curvature="0" /></g><g
       id="g7403"
       transform="translate(88.7397,714.7539)"><path
         d="m 0,0 h -0.756 v 1.729 h 0.587 C 0.705,1.729 0.904,1.411 0.904,0.875 0.904,0.307 0.556,0 0,0 m 1.609,-0.974 v 0.02 c 0.706,0.357 1.063,1.182 1.063,1.937 0,1.034 -0.506,1.759 -1.311,2.068 C 1.053,3.17 0.705,3.22 -0.021,3.22 h -2.474 v -7.105 h 1.739 v 2.394 H 0.06 l 1.261,-2.394 h 1.938 l -1.381,2.483 c -0.169,0.299 -0.269,0.428 -0.269,0.428"
         style="fill:#3c3e43;fill-opacity:1;fill-rule:nonzero;stroke:none"
         id="path7405"
         inkscape:connector-curvature="0" /></g><g
       id="g7407"
       transform="translate(95.0444,713.75)"><path
         d="m 0,0 0.407,1.381 c 0.129,0.447 0.288,1.223 0.288,1.223 h 0.02 c 0,0 0.159,-0.776 0.288,-1.223 L 1.4,0 Z m -0.209,4.224 -2.416,-7.105 h 1.79 l 0.426,1.49 h 2.217 l 0.437,-1.49 H 4.034 L 1.619,4.224 Z"
         style="fill:#3c3e43;fill-opacity:1;fill-rule:nonzero;stroke:none"
         id="path7409"
         inkscape:connector-curvature="0" /></g><g
       id="g7411"
       transform="translate(102.168,714.7539)"><path
         d="m 0,0 h -0.754 v 1.729 h 0.585 C 0.706,1.729 0.904,1.411 0.904,0.875 0.904,0.307 0.557,0 0,0 m 1.609,-0.974 v 0.02 c 0.707,0.357 1.064,1.182 1.064,1.937 0,1.034 -0.506,1.759 -1.311,2.068 C 1.054,3.17 0.706,3.22 -0.02,3.22 h -2.474 v -7.105 h 1.74 v 2.394 h 0.815 l 1.26,-2.394 H 3.26 l -1.382,2.483 c -0.169,0.299 -0.269,0.428 -0.269,0.428"
         style="fill:#3c3e43;fill-opacity:1;fill-rule:nonzero;stroke:none"
         id="path7413"
         inkscape:connector-curvature="0" /></g><g
       id="g7415"
       transform="translate(108.4976,716.2642)"><path
         d="m 0,0 c -0.229,-0.487 -0.427,-1.023 -0.427,-1.023 h -0.02 c 0,0 -0.198,0.536 -0.427,1.023 l -0.804,1.708 h -1.979 l 2.346,-4.192 v -2.911 h 1.739 v 2.911 L 2.772,1.708 H 0.795 Z"
         style="fill:#3c3e43;fill-opacity:1;fill-rule:nonzero;stroke:none"
         id="path7417"
         inkscape:connector-curvature="0" /></g><g
       id="g7419"
       transform="translate(77.4233,732.29)"><path
         d="m 0,0 c -0.552,-0.676 -1.391,-1.109 -2.331,-1.109 -1.66,0 -3.005,1.345 -3.005,3.005 0,1.661 1.345,3.005 3.005,3.005 0.939,0 1.777,-0.431 2.329,-1.106 l 0.475,0.474 c -0.675,0.796 -1.679,1.302 -2.804,1.302 -2.03,0 -3.675,-1.645 -3.675,-3.675 0,-2.03 1.645,-3.675 3.675,-3.675 1.125,0 2.132,0.507 2.805,1.304 z"
         style="fill:#3c3e43;fill-opacity:1;fill-rule:nonzero;stroke:none"
         id="path7421"
         inkscape:connector-curvature="0" /></g><g
       id="g7423"
       transform="translate(102.6162,722.3442)"><path
         d="m 0,0 c -0.552,-0.676 -1.39,-1.109 -2.331,-1.109 -1.659,0 -3.005,1.345 -3.005,3.005 0,1.661 1.346,3.006 3.005,3.006 0.94,0 1.778,-0.432 2.329,-1.107 L 0.473,4.27 c -0.674,0.795 -1.679,1.302 -2.804,1.302 -2.029,0 -3.674,-1.646 -3.674,-3.676 0,-2.03 1.645,-3.675 3.674,-3.675 1.126,0 2.132,0.507 2.806,1.304 z"
         style="fill:#3c3e43;fill-opacity:1;fill-rule:nonzero;stroke:none"
         id="path7425"
         inkscape:connector-curvature="0" /></g><g
       id="g7427"
       transform="translate(53.9424,735.9819)"><path
         d="m 0,0 0.005,-3.838 -5.962,0.42 -6.443,3.791 5.902,3.446 z m 6.872,-4.04 -3.447,-4.898 -2.306,1.36 -0.003,6.92 z m 0.201,-8.317 0.007,-7.372 -3.184,-1.862 -2.792,5.697 -0.001,7.05 z m -6.616,-11.239 -5.9,3.464 5.735,3.357 2.629,-5.387 z m -6.423,11.352 5.968,3.487 0.006,-6.91 -5.977,-3.496 z m -7.076,-3.755 2.705,5.68 3.27,-1.918 -0.005,-7.57 -5.961,-3.492 z m -7.062,-3.705 10e-4,6.926 5.973,-3.52 -0.005,-6.915 z m 6.611,11.246 2.179,-1.291 -2.645,-5.366 -5.439,3.203 z m 7.528,3.911 5.963,-0.43 0.007,-2.5 -5.972,-3.494 z m -7.071,4.008 5.974,-3.501 -0.009,-6.924 -5.963,3.506 z m -10.686,-8.837 3.722,5.287 5.873,3.436 -0.006,-6.905 -6.34,-3.716 z m 17.759,14.163 0.02,3.32 H -7.042 L -7.063,4.768 -10.219,2.922 c -0.477,1.007 -1.378,2.9 -2.059,4.329 l -1.08,-0.363 2.163,-4.536 -2.294,-1.343 -5.108,3.001 -0.913,-0.739 4.935,-2.897 -5.893,-3.456 -2.985,1.742 -0.555,-0.953 2.766,-1.62 -3.45,-4.893 -1.383,0.793 -0.195,-1.17 5.074,-2.957 -0.002,-3.95 -4.867,0.277 0.268,-1.154 4.6,-0.253 0.003,-2.659 -2.784,-1.629 0.558,-0.95 c 1.423,0.831 2.748,1.604 2.925,1.708 l 5.887,-3.467 -4.861,-2.843 0.915,-0.739 4.411,2.579 0.025,-5.121 1.099,-0.418 -0.021,6.185 5.965,3.488 0.007,-6.919 -5.15,-3.012 1.505,-0.39 3.824,2.238 1.37,-2.676 1.213,0.093 -1.6,3.156 -0.05,7.497 5.817,-3.42 0.006,-6.32 1.169,0.433 0.101,5.14 4.384,-2.608 0.923,0.733 -4.891,2.909 5.897,3.45 2.989,-1.77 0.559,0.945 -2.464,1.459 4.109,2.404 0.398,1.503 -4.863,-2.844 -0.005,6.913 5.168,3.029 -0.195,1.162 -5.685,-3.326 -3.065,1.799 3.976,5.644 2.699,1.582 L 10.516,-1.33 7.471,-3.111 1.576,0.358 6.573,3.282 5.659,4.021 1.109,1.358 1.141,6.608 0.051,7.02 0.007,1.277 Z"
         style="fill:#3c3e43;fill-opacity:1;fill-rule:nonzero;stroke:none"
         id="path7429"
         inkscape:connector-curvature="0" /></g></g></g></svg>