<svg xmlns="http://www.w3.org/2000/svg" width="488.7" height="200" viewBox="0 0 488.7 200"><title>Artboard 1</title><path d="M389.7,172.1a2.29,2.29,0,0,1,2.3,2c0,.7-.3.8-1.2.8h-4.5c-.1,0-.2-.2-.1-.4a3.81,3.81,0,0,1,3.5-2.4m.3-.9a7.82,7.82,0,0,0-2.7.6,7.19,7.19,0,0,0-4.2,6.6c0,3.9,2.5,6.7,6.3,6.7a6.08,6.08,0,0,0,5.1-2.5,1.88,1.88,0,0,0,.2-.8c0-.2-.1-.4-.3-.4s-.3.2-.5.4a3.81,3.81,0,0,1-3.2,1.2,4.85,4.85,0,0,1-3.9-1.8,6.46,6.46,0,0,1-1.3-3.8,5,5,0,0,1,.2-1.2.45.45,0,0,1,.3-.3h8a.75.75,0,0,0,.7-.6,3.83,3.83,0,0,0-1.2-2.8,5.39,5.39,0,0,0-3.5-1.3m-12.2.5c-.1,0-.2-.2-.2-.3,0-4.4.3-6.2,1.2-7.6a2.43,2.43,0,0,1,2.2-1.4,4.59,4.59,0,0,1,2.5,1c.5.5.7.7.9.7s.5,0,.6-.1a1.81,1.81,0,0,0,1-1.4,1.25,1.25,0,0,0-.6-1.1,4.38,4.38,0,0,0-2.3-.6,6.71,6.71,0,0,0-4,1.4,9.24,9.24,0,0,0-3.2,3.9,14.41,14.41,0,0,0-.9,5c0,.2-.2.4-.5.6-.8.6-1.7,1-1.7,1.1s.1.6.3.6a7.57,7.57,0,0,1,1.5-.1c.1,0,.4.1.4,1.2,0,1.8,0,5.8-.1,7.2s-.1,1.8-1.6,2.2a1,1,0,0,0-.7.5c0,.2.4.4.9.4.3,0,2.2-.2,3.5-.2.9,0,2.5.1,2.9.1s.9-.1.9-.4c0-.1-.2-.4-.8-.5-2-.3-2.2-.6-2.4-1.8-.1-.6-.2-7.9-.1-8.6,0-.1.2-.3.2-.3l4.1.1c.2,0,.5-.2.5-.3,0-.7-.2-1.4-.5-1.4,0,0-1.9.1-4,.1m-10.3-7.3a2.3,2.3,0,0,0-1.4.4,2.13,2.13,0,0,0-.4,1.2,1.5,1.5,0,0,0,.5,1.2,1.86,1.86,0,0,0,1.1.4A1.81,1.81,0,0,0,369,166a1.6,1.6,0,0,0-1.5-1.6m-3.2,8.4c0,.1.1.2.3.4,1,.7,1.4,1,1.4,1.2.1.4,0,5.1,0,5.2,0,1,0,3-.1,3.5a2,2,0,0,1-1.4.9c-.6.2-.8.3-.8.5s.4.4.9.4,1.8-.1,3-.1c.7,0,2.5.1,2.7.1.4,0,.8-.1.8-.3s-.2-.4-.8-.6c-.9-.3-1.7-.3-1.7-1.4s-.1-2.6-.1-4.4.2-6.3.2-6.6c0,0-.2-.4-.3-.4a30.27,30.27,0,0,1-3.5,1.1.56.56,0,0,0-.6.5M344,163.6c0,.2.3.5,1,.6,1.7.3,1.8.9,1.9,1.7v4.7c0,4.8-.1,10.2-.2,11-.2,1.3-.7,1.9-2.6,2.3-.6.1-.8.4-.8.6s.4.4,1,.4,2.1-.2,4.5-.2c7.1,0,10.3.2,10.8.2.1,0,.8-.2.8-.6a23.61,23.61,0,0,1,1.1-3.6c.1-.5,0-.9-.1-.9s-.5.1-.9.7a11.77,11.77,0,0,1-2,2.2,1.88,1.88,0,0,1-1.4.6,17,17,0,0,1-2.5.1,17.77,17.77,0,0,1-3.4-.2c-.3,0-1.1-.8-1.2-1.3-.1-1.1-.2-4.3-.2-6.9,0-4.9,0-8.3.2-9.8.1-.5.3-.9,2.4-1.3.5-.1.8-.3.8-.6s-.3-.4-.9-.4c-.8,0-3.2.1-4.6.1-1,0-1.7-.1-2.6-.1-.8.3-1.1.4-1.1.7m-14.7,8.5a2.29,2.29,0,0,1,2.3,2c0,.7-.4.8-1.2.8h-4.5c-.1,0-.2-.2-.1-.4a3.81,3.81,0,0,1,3.5-2.4m.3-.9a7.82,7.82,0,0,0-2.7.6,7.19,7.19,0,0,0-4.2,6.6c0,3.9,2.5,6.7,6.3,6.7a6.08,6.08,0,0,0,5.1-2.5,1.88,1.88,0,0,0,.2-.8c0-.2-.1-.4-.3-.4s-.3.2-.5.4a3.81,3.81,0,0,1-3.2,1.2,4.85,4.85,0,0,1-3.9-1.8,6.46,6.46,0,0,1-1.3-3.8,5,5,0,0,1,.2-1.2.45.45,0,0,1,.3-.3h8a.75.75,0,0,0,.7-.6,3.83,3.83,0,0,0-1.2-2.8,5.39,5.39,0,0,0-3.5-1.3m-13.4.5a.45.45,0,0,1-.3-.3v-1.6a.7.7,0,0,0-.5-.4c-.1,0-.4.3-.8.7a20.17,20.17,0,0,1-2.8,2.3.52.52,0,0,0-.2.4c0,.1.2.3.5.4.7.2,1.3.4,1.3.7,0,1.2-.1,6.2-.1,7.4a3.79,3.79,0,0,0,.5,2.2,3.91,3.91,0,0,0,3.1,1.6,5.45,5.45,0,0,0,3.8-1.5,1.77,1.77,0,0,0,.5-.8.43.43,0,0,0-.2-.4c-.1,0-.2,0-.5.2a4.06,4.06,0,0,1-1.7.5,3.22,3.22,0,0,1-2.1-.6,2,2,0,0,1-.6-1.6c0-1.6,0-6.5.1-7.2,0-.1.1-.2.3-.2h3.8c.2,0,.9-.1.9-.4s-.1-1.4-.1-1.3c0-.1-.4-.3-.4-.3-.3,0-3.7.2-4.5.2M303,183.3a2.14,2.14,0,0,1-2.2-2,1.51,1.51,0,0,1,.7-1.3,12.14,12.14,0,0,1,3.6-1,.45.45,0,0,1,.3.3,23.48,23.48,0,0,1-.1,2.6c0,.1-.2.7-.4.8a3.53,3.53,0,0,1-1.9.6m1.1-12.1a8.26,8.26,0,0,0-3.3,1.3c-1.7,1-2.6,2-2.6,2.9a.43.43,0,0,0,.4.4,11.69,11.69,0,0,0,2.3-1.1.76.76,0,0,0,.2-.4c-.1-.7,0-1.3.2-1.4a2.11,2.11,0,0,1,1.4-.4,2.65,2.65,0,0,1,2.7,2.2,23.48,23.48,0,0,1-.1,2.7c0,.2-.2.4-1,.6s-3.6,1-4.1,1.2a3.22,3.22,0,0,0-1.4.8,2.84,2.84,0,0,0-.7,1.7c0,1.7,1.2,3.1,2.4,3.1a9.32,9.32,0,0,0,1.4-.2,18.63,18.63,0,0,0,3.2-1.5.35.35,0,0,1,.2.1,2.39,2.39,0,0,0,2.3,1.7c1.6,0,3.2-1.4,3.2-2.1a.49.49,0,0,0-.1-.3c-.1-.1-.1-.2-.2-.1a3.62,3.62,0,0,1-1.3.5c-.3,0-1.4-.1-1.4-1.7,0-.4.1-4.6.1-5.9a4.28,4.28,0,0,0-.7-2.8,4.09,4.09,0,0,0-3.1-1.3m-22.1.7c0,.2.1.3.7.5a2.29,2.29,0,0,1,1.5,1.1c.9,1.6,2.8,5.7,3.7,7.9.8,1.9.9,2.3,1.3,3.4.1.4.3.6.5.6s.7-.3.8-.9a42.74,42.74,0,0,1,1.6-4.5c1.1-2.3,2.4-5.6,2.9-6.3a3.52,3.52,0,0,1,1.8-1.3c.5-.2.7-.3.7-.5s-.4-.4-.7-.4c-.7,0-1.8.2-2.4.2-.9,0-1.2-.1-1.9-.1-.5,0-.7.2-.7.4s.3.3.6.4c1.1.4,1.4.6,1.1,1.4-.3,1-2.2,5.7-2.7,6.7-.1.1-.2.2-.3.1a53.48,53.48,0,0,1-3.1-7.1c-.1-.4-.2-.9.8-1.1.5-.1.8-.3.8-.5s-.3-.4-.8-.4-1.3.1-2.2.1c-.4,0-2.3-.2-2.9-.2s-1.1.2-1.1.5m-3.8-7.5a2.3,2.3,0,0,0-1.4.4,2.13,2.13,0,0,0-.4,1.2,1.5,1.5,0,0,0,.5,1.2,1.86,1.86,0,0,0,1.1.4,1.81,1.81,0,0,0,1.7-1.6c0-.5-.6-1.6-1.5-1.6m-3.2,8.4c0,.1.1.2.3.4,1,.7,1.4,1,1.4,1.2.1.4,0,5.1,0,5.2,0,1,0,3-.1,3.5a2,2,0,0,1-1.4.9c-.6.2-.8.3-.8.5s.4.4.9.4,1.8-.1,3-.1c.7,0,2.5.1,2.7.1.4,0,.8-.1.8-.3s-.2-.4-.8-.6c-.9-.3-1.7-.3-1.7-1.4s-.1-2.6-.1-4.4.2-6.3.2-6.6c0,0-.2-.4-.3-.4a30.27,30.27,0,0,1-3.5,1.1.56.56,0,0,0-.6.5m-6.7-1.1a.45.45,0,0,1-.3-.3v-1.6a.7.7,0,0,0-.5-.4c-.1,0-.4.3-.8.7a20.17,20.17,0,0,1-2.8,2.3.52.52,0,0,0-.2.4c0,.1.2.3.5.4.7.2,1.3.4,1.3.7,0,1.2-.1,6.2-.1,7.4a3.79,3.79,0,0,0,.5,2.2,3.91,3.91,0,0,0,3.1,1.6,5.45,5.45,0,0,0,3.8-1.5,1.77,1.77,0,0,0,.5-.8.43.43,0,0,0-.2-.4c-.1,0-.2,0-.5.2a4.06,4.06,0,0,1-1.7.5,3.22,3.22,0,0,1-2.1-.6,2,2,0,0,1-.6-1.6c0-1.6,0-6.5.1-7.2,0-.1.1-.2.3-.2h3.8c.2,0,.9-.1.9-.4s-.1-1.4-.1-1.3c0-.1-.4-.3-.4-.3-.3,0-3.8.2-4.5.2m-12.8-9c0,.1.1.2.7.6.8.5.8.7.8.9,0,1,.1,4.5.1,7,0,5.3-.2,8.9-.2,10.2-.1,1.7-.2,2.3-1.8,2.6-.4.1-.8.2-.8.5s.3.4,1,.4,2.3-.1,3.1-.1c.6,0,2.1.1,3,.1.4,0,.9-.1.9-.4s-.3-.4-.8-.5c-1.5-.4-1.7-.8-1.8-1.5-.2-.9-.1-7.3-.1-12.2,0-4.5.2-8.3.3-9.1,0-.1-.2-.4-.3-.3a16.28,16.28,0,0,1-3.6,1.3c-.4.1-.5.3-.5.5M245,183.4a3.33,3.33,0,0,1-2.4-.7,2.32,2.32,0,0,1-.9-1.9c0-1.5.1-7.8.1-9,0-.2-.1-.5-.3-.5s-2.7.4-3.7.4c-.4,0-.6.2-.6.3,0,.3.3.5.6.6.6.2,1.3.4,1.3,1.3.1,1.8.1,5.5.1,8a3,3,0,0,0,.5,1.6,3.7,3.7,0,0,0,3.1,1.6,7.46,7.46,0,0,0,2.4-.4,20.65,20.65,0,0,0,2.9-1.7.22.22,0,0,1,.2.2c0,.6-.1,1.2-.1,1.4s.2.5.4.5a6.29,6.29,0,0,0,1.2-.3,16.47,16.47,0,0,1,3.2-.6c.1,0,.4-.2.4-.3s-.3-.6-.4-.6c-.4,0-1.5.2-1.8.2s-.4-.4-.4-.5c0-2.7.3-10.2.3-11.1,0-.1-.1-.5-.2-.5a2.49,2.49,0,0,0-.8.1,18.41,18.41,0,0,1-3.8.4c-.3,0-.8.2-.8.3,0,.3.5.5.7.5s1.1.3,1.6.4c.2.1.6.5.6.7l-.1,7.7a2.51,2.51,0,0,1-.5.8,5.26,5.26,0,0,1-2.8,1.1m-17.9-20.8a14.62,14.62,0,0,0-9.5,3.1,10.7,10.7,0,0,0-.9,15.7,13.77,13.77,0,0,0,10,3.9,24.33,24.33,0,0,0,6.4-.9c.4-.2,1-.6,1.1-.9a11.12,11.12,0,0,0,1.4-3.4c.1-.4,0-1.1-.3-1.1-.1,0-.3.2-.7.9a6.85,6.85,0,0,1-3.3,3.2,8.38,8.38,0,0,1-3.8.9,10.24,10.24,0,0,1-8.9-5.3,11.47,11.47,0,0,1-1.2-5.5,9.2,9.2,0,0,1,9.3-9.5,9.39,9.39,0,0,1,5.6,1.7,4.43,4.43,0,0,1,1.4,2.5c.2.5.4.9.6.9s.6-.4.5-1.1a28.5,28.5,0,0,1-.3-2.9c0-.8-.3-1-.5-1-.5-.1-1.8-.5-2.7-.6a20.26,20.26,0,0,0-4.2-.6" fill="#4aa542"/><path d="M413.2,50.3c-.1,0-.2-.2-.2-.3,0-4.9.4-6.9,1.3-8.5a2.74,2.74,0,0,1,2.4-1.5,4.42,4.42,0,0,1,2.8,1.2c.6.5.8.7,1.1.7a1.7,1.7,0,0,0,.7-.1,1.65,1.65,0,0,0,.4-2.9,4.3,4.3,0,0,0-2.5-.7,7.57,7.57,0,0,0-4.5,1.5,10.34,10.34,0,0,0-3.6,4.4,15.16,15.16,0,0,0-1,5.6c0,.2-.2.4-.5.6-.9.7-1.9,1.1-1.9,1.2a.49.49,0,0,0,.4.6,9.15,9.15,0,0,1,1.6-.1c.2,0,.4.1.4,1.4,0,2,0,6.5-.1,8.1s-.1,2.1-1.8,2.5c-.4.1-.8.4-.8.6s.4.4,1,.4c.4,0,2.5-.2,3.9-.2,1,0,2.8.1,3.3.1s1-.1,1-.4c0-.1-.2-.4-.9-.6-2.2-.3-2.5-.7-2.6-2-.1-.6-.2-8.8-.1-9.6a.45.45,0,0,1,.3-.3l4.6.1c.2,0,.6-.3.6-.4,0-.8-.3-1.6-.5-1.6a24,24,0,0,1-4.8.2m-16.5.6a5.23,5.23,0,0,1,3.3,1.5,8.48,8.48,0,0,1,2,5.7,8.14,8.14,0,0,1-1.8,4.9,3.89,3.89,0,0,1-2.4,1.2c-1.9,0-4.1-1.3-5.1-4.2a10.9,10.9,0,0,1-.5-3.3,7,7,0,0,1,1.9-4.8,4.45,4.45,0,0,1,2.6-1m.7-1.1a8.57,8.57,0,0,0-5.8,2.1,7.09,7.09,0,0,0-2.8,5.8,8,8,0,0,0,2.9,5.7,8.53,8.53,0,0,0,5.2,1.9,8.09,8.09,0,0,0,4.9-1.5,7.76,7.76,0,0,0,3.4-6.4,7.57,7.57,0,0,0-7.8-7.6m-33,.8c0,.2.2.4.8.6a2.55,2.55,0,0,1,1.9,1.5c1.2,2.4,3.7,7.9,4.5,10.1.2.4.5,1.3.6,1.5s0,.8-.1,1.3a43.66,43.66,0,0,1-1.9,4.8c-.2.4-.2.6-.6.6h-1.4a1.73,1.73,0,0,0-1.7,1.6,1.67,1.67,0,0,0,1.8,1.8,2.12,2.12,0,0,0,2-1c1.3-3.2,2.7-7,4.1-10.4.9-2.2,3-7.2,4.3-10,.6-1.2,1.1-1.7,1.9-1.9.5-.1.9-.3.9-.6s-.3-.3-.8-.3c-1,0-1.9.2-2.5.2s-1.6-.1-2.3-.1c-.5,0-1,.1-1,.4,0,.1.4.4.8.5,1.5.3,1.9.8,1.5,1.8-.2.6-2.6,6.6-3.1,7.6-.1.2-.3.2-.3.1-.3-.4-2.8-6.3-3.4-8.1-.4-1-.3-1.2.8-1.5.6-.1.9-.4.9-.6s-.5-.4-.9-.4-1.7.1-2.8.1-2.1-.2-3.1-.2c-.8.2-.9.5-.9.6m-6.6-.3a.32.32,0,0,1-.3-.3V48.2c0-.1-.4-.4-.6-.4s-.4.3-.9.8-1.8,1.5-3.2,2.6a.76.76,0,0,0-.2.4c0,.1.2.3.6.4.8.2,1.5.5,1.5.7,0,1.3-.2,6.9-.2,8.3a4.87,4.87,0,0,0,.5,2.5,4.43,4.43,0,0,0,3.5,1.8,6.16,6.16,0,0,0,4.2-1.6c.3-.3.6-.6.6-.9a.43.43,0,0,0-.2-.4c-.2,0-.2,0-.6.2a5.19,5.19,0,0,1-1.9.6,3.56,3.56,0,0,1-2.4-.7,2.32,2.32,0,0,1-.7-1.8c0-1.8,0-7.3.1-8a.45.45,0,0,1,.4-.3h4.3c.3,0,1-.1,1-.4a13.8,13.8,0,0,0-.1-1.4c0-.1-.4-.3-.4-.3-.3-.1-4.1,0-5,0M347,42.2a2.1,2.1,0,0,0-1.5.5A2.66,2.66,0,0,0,345,44a2,2,0,0,0,.6,1.4,2.42,2.42,0,0,0,1.3.4,2,2,0,0,0,1.9-1.8c-.1-.7-.8-1.8-1.8-1.8m-3.6,9.3a.54.54,0,0,0,.3.4c1.1.8,1.6,1.1,1.6,1.4s0,5.8,0,5.8a22.4,22.4,0,0,1-.2,3.9c-.1.4-.7.8-1.6,1-.7.2-.9.4-.9.6s.4.4,1,.4,2.1-.1,3.4-.1c.8,0,2.8.1,3.1.1s.9-.1.9-.4-.2-.4-.9-.6c-1-.3-1.9-.4-1.9-1.6s-.1-2.9-.1-5,.2-7,.2-7.4c0,0-.2-.4-.4-.4-.6.1-2.4,1-3.9,1.3-.3.1-.6.4-.6.6M331,40.2a17,17,0,0,0-10.7,3.4,12.15,12.15,0,0,0-1,17.6,15.45,15.45,0,0,0,11.2,4.4,28.74,28.74,0,0,0,7.2-1c.4-.2,1.1-.6,1.2-1a11.43,11.43,0,0,0,1.6-3.8c.1-.4,0-1.2-.4-1.2-.2,0-.3.2-.8,1a7.62,7.62,0,0,1-3.7,3.6,9.22,9.22,0,0,1-4.3,1,11.51,11.51,0,0,1-10-6,12.64,12.64,0,0,1-1.4-6.2c0-5.7,4.1-10.6,10.4-10.6a10.48,10.48,0,0,1,6.3,1.9,5.57,5.57,0,0,1,1.6,2.8c.2.6.4,1,.6,1s.6-.4.6-1.2-.3-2.5-.3-3.3-.4-1.1-.6-1.1c-.6-.1-2-.6-3-.7a18,18,0,0,0-4.5-.6" fill="#4aa542"/><path d="M120.7,10.8c-2.2.1-1.5,1.5-.4,2.1h0c20,10.5,12.9,47.5,52.7,53.9h0c1.7.3,1.9-.5,2-2.1h0c.3-13.5-9.2-30.9-23.2-39.2h0c-1.6-.9-2,.6-1.1,1.3h0c9.7,8.1,10.9,24,11.3,33.7h0c-22.8-13.3-11.7-29.6-29.7-46.8h0c25.6,1.1,50.2,23.6,45.4,61.8-.1.9,3.5.5,4-2.8,6.4-43.7-14.3-62-56.1-62h0c-1.6,0-3.3,0-4.9.1" fill="#4aa542"/><path d="M99.6,74.3c-.4,2.1,1.5,2.6,3,.9,2-2,7.2-10.6,7.7-14.9s-21.4-10-40.4,1.1C51,72.3,42.7,87.7,68.5,107c16.8,12.6,17.3,38.2-12.3,50-20.6,8.2-38.5-7.5-24.5-29.1,6.1-9.4,15.8-16.9,17.1-17.5s1-2-2-1.3c-4.8,1-32,15.9-31.4,37.2.7,23,60,24.1,74.5-15.7C98.5,107,62,93.8,63,78.9c.7-10,17.5-25,33.5-15,4.9,3.1,3.5,8.2,3.1,10.4" fill="#002b54"/><path d="M132.1,79.3s-7.7,12.2-7.5,13.1,16.6.3,23-2a11,11,0,0,1-7.7,6.1c-4.4,1-15.2-.9-18.1.8-2.4,1.3-16.4,27.4-20.5,35.1-8.9,16.7,2.4,25.1.7,25.2-11.9-.5-13.5-17-8.2-26.8,3.5-6.6,18.7-32.8,17.9-33.9s-11.3-1.1-11.3-1.1.8-3.1,2.2-3.1,10,.2,14.2-2.1c5.9-3.2,11.2-9.9,12.7-11a2.52,2.52,0,0,1,2.6-.3" fill="#002b54"/><path d="M223.9,40.2c-9.4,20.9-24.4,59.8-32.7,83.1-1-10.4-7.3-31.2-10.4-37.1,14.6-18.6,40.5-47.4,43.1-46M69,165.9c8.4,9,33.5,12,54-11.5,18.8-21.5,45.9-53.8,52.9-61.4,3.6,7.9,14.7,23.7,6.5,62.9-1.1,5.4-3.2,9.2-5.1,15.5-.8,2.5-1.9,6.6,3.2,7.3a61,61,0,0,0,11.4.2c4-.2.8-3.1,1.2-6.6,6.1-49,44.5-131.3,47.6-135.3,4.1-5.3,8-6,9.7-6.5,1-.3,2.6-2.4-.7-2.9s-19.9,0-23.7,1.7-34.9,36.1-48.5,51.9c-15.2-21.8-42.9-29.1-65.9-5.1-2,2.1-1.5,4.7,1.4,2.7,11.1-7.8,40.5-17.4,59.9,8.9-8,8.6-28.9,34.7-47,54.5-15.3,16.7-40.6,31.2-59.1,19.1C66.9,161.3,65.2,161.8,69,165.9Z" fill="#002b54"/><path d="M253.2,143c1.7-5.6,14.5-22.2,26.6-36.3,7.2-8.3,15.3-11.9,12.6-2.7a93.74,93.74,0,0,1-18.7,35.1c-13.1,15.3-21.9,8.3-20.5,3.9m41.3-91.6c-.8,1.1-39,67.1-46,76.1-6.6,7-9.2,9.4-15.7,14-9.7,6.8-12.3,1.2-6.1-10.2,5.4-10,45.7-77.7,47.4-81.1,1-2-9.9-.7-11.2,1s-42.1,71-47.1,79.9c-7.7,13.8-6.2,25.2,4.8,21.8,11.6-3.6,25.4-18.7,25.4-18.7s-9,15.8-9.9,17.5,9.5,1.4,10.9,0c.9-.9.7-1,1.7-2.6,7.7,9.2,29.5,3.2,42.9-18.2s16.9-41.3,9.5-42.4c-11.2-1.7-33.7,27.2-32.7,24.2.7-2.2,35.7-59.5,36.9-62,1.6-3-9.6-1-10.8.7" fill="#002b54"/><path d="M319,117.7c2.2-4.4,9.8-15.5,14.6-19.9,10-9.2,15.8-6.5,9.2,5.8-4.5,8.4-18.3,15.4-23.8,14.1m80.9-27.8c-2.9,2.5-20.3,19.6-33.2,32.9,5.1-8.7,18.2-29.8,18.7-31.3s-9.2-1.4-11.6,1.9-10.2,20.3-23.3,34c-6.6,7-24,24.7-35.1,19.7-5.4-2.4-5.1-12.6,1.7-25.2,6,.7,29.4-6.1,36.1-18.2s1-18.9-14.3-13.6c-13.1,4.5-24.3,18.2-31,28.2-12.2,18.4-9.7,35.6,5.4,35.2,13.1-.3,30.6-13.4,37.1-21.8-5.3,9.5-11.1,19.1-10.9,20.1s9.4,2.6,11.4-1.7a203.93,203.93,0,0,1,22.5-28.9,225.91,225.91,0,0,1,17-16.7c-5.3,17,10.9,16,14.1,12.1-5.3-.9-3.9-9-2-12.9s9-12.1,10.4-14.3c1-1.4-10.1-2.1-13,.5" fill="#002b54"/><path d="M109,138.7c-1.9,2.2-2.4,6.5.3,7.3s4.9-1.5,6-2.8c1.8-2,2-6.1-.1-6.9-2.3-1-4.3.2-6.2,2.4" fill="#002b54"/><path d="M455.9,60.3s-10.2,16.2-10,17.4,22.1.5,30.5-2.6c-.4,2.5-3.4,6.6-10.2,8.1-5.8,1.3-21-.7-24.1,1s-22.6,37.4-27.8,47.7c-11.9,23.7,3.1,33.3.9,33.4-15.4-1.9-18.6-21.2-11-35.6,4.7-8.8,25.3-44.5,24.4-46.1-.5-.9-15.1-1.4-15.1-1.4s1.1-4.1,2.9-4.1,13.3.3,18.9-2.8c7.8-4.3,14.4-13.3,16.9-14.7a4.75,4.75,0,0,1,3.7-.3" fill="#002b54"/><path d="M186.8,47.7c1.3-4.9,4.7-11.2,7.4-12.2-3.5,8.9-4.5,23.7-6.6,26.2-1.3,1.5.3,3,1.7,1.9,12.9-10,8.8-29.3,3.2-38.1-1.1-1.8-2.6-1.6-2.3.4.5,3.3-7.6,8.9-5.5,20.9.2,1.5,1.7,2.2,2.1.9" fill="#4aa542"/><path d="M135.3,88.9c.1,1.4,1.5,1.6,1.9.3h0c1.3-4.6,7.3-10.7,22.7-5.4h0c6.7,2.3,8.6,3.4,10.4,4.4.9.5,1.6-.9.8-1.6-1.3-1-2.7-1.9-9.5-5.7h0c-5.4-3-10.6-4.5-14.9-4.5h0c-7.2,0-12,4.3-11.4,12.5" fill="#4aa542"/></svg>