<svg width="258" height="95" viewBox="0 0 258 95" fill="none" xmlns="http://www.w3.org/2000/svg">
  <path
    d="M16.2853 88.5173C16.2853 90.3799 15.5881 91.8617 14.1936 92.9627C12.6995 94.1299 10.5747 94.7094 7.81894 94.7094C5.42013 94.7094 3.47785 94.2541 2.00039 93.3518C0.672329 92.5405 0.00830078 91.572 0.00830078 90.4379C0.00830078 89.6266 0.298813 88.9478 0.888139 88.4014C1.56877 87.7723 2.51501 87.4577 3.73516 87.4577C4.99682 87.4577 5.97626 87.913 6.65689 88.8153C6.13397 88.9478 5.71895 89.2044 5.40353 89.6018C5.08812 89.9991 4.93041 90.413 4.93041 90.8518C4.93041 91.5968 5.25413 92.1928 5.90156 92.6481C6.49918 93.0869 7.22961 93.3021 8.09285 93.3021C8.97269 93.3021 9.68652 93.0538 10.2343 92.5654C10.7822 92.0687 11.0644 91.4644 11.0644 90.7359C11.0644 89.461 10.1264 88.5008 8.24226 87.8716C6.49088 87.3253 4.7395 86.7789 2.98813 86.2491C1.10395 85.3882 0.166008 84.0802 0.166008 82.317C0.166008 80.9097 0.705531 79.7011 1.78458 78.6912C2.86362 77.6812 4.28299 77.1763 6.03436 77.1763C6.881 77.1763 7.86874 77.3667 9.00589 77.7557C10.143 78.1448 10.998 78.3352 11.5873 78.3352C12.4173 78.3352 13.2723 78.0206 14.1687 77.3915C14.3181 77.764 14.3845 78.2193 14.3845 78.7491C14.3845 79.8667 14.094 80.7442 13.5047 81.3981C12.9652 81.9776 12.2762 82.2756 11.4379 82.2756C10.6743 82.2756 9.96873 81.9528 9.3213 81.3071C8.81498 80.6945 8.30866 80.0736 7.78574 79.461C7.18811 78.8153 6.56558 78.4925 5.93476 78.4925C5.52804 78.4925 5.17112 78.6663 4.86401 79.014C4.5569 79.3617 4.39919 79.6845 4.39919 79.9743C4.39919 80.8518 5.42843 81.6299 7.48692 82.3253C10.8984 83.4759 12.7992 84.1548 13.2059 84.3617C15.2478 85.3965 16.2853 86.7872 16.2853 88.5173Z"
    fill="#00583D"></path>
  <path
    d="M34.8531 83.0133C34.8531 84.7435 34.2638 86.01 33.0768 86.7964C31.7986 87.6739 29.6571 88.1044 26.6524 88.1044C26.0381 88.1044 25.3492 88.1044 24.5856 88.1044C24.5856 89.8262 24.7101 91.0348 24.9591 91.7302C25.2081 92.4256 25.7227 93.0133 26.5029 93.4769L26.1128 94.5613C24.7184 94.1392 23.382 93.9322 22.0955 93.9322C20.5682 93.9322 19.2152 94.1392 18.0283 94.5613L17.3726 93.5183C17.9868 93.1292 18.435 92.3594 18.7089 91.217C19.0326 89.8594 19.1986 87.707 19.1986 84.7683C19.1986 82.9719 19.0658 81.5978 18.8002 80.6458C18.5346 79.6938 18.0781 78.9487 17.4224 78.4189L18.2275 77.3014C18.8251 77.8643 19.8461 78.154 21.2903 78.154C22.1536 78.154 23.1828 78.0299 24.3781 77.7898C25.5816 77.5497 26.4448 77.4256 26.9844 77.4256C29.3998 77.4256 31.3172 77.914 32.7282 78.8825C34.1476 79.8593 34.8531 81.2335 34.8531 83.0133ZM29.2255 82.5001C29.2255 80.0911 28.4452 78.8825 26.8931 78.8825C25.9717 78.8825 25.3243 79.255 24.9674 80.0084C24.6105 80.7617 24.4279 82.0613 24.4279 83.9074C24.4279 84.3792 24.4445 85.0829 24.4777 86.0183C25.2911 86.1839 25.8638 86.2584 26.2041 86.2584C27.2749 86.2584 28.0468 85.9686 28.5199 85.3974C28.9931 84.8262 29.2255 83.866 29.2255 82.5001Z"
    fill="#00583D"></path>
  <path
    d="M54.6162 91.3162C54.6162 92.2848 54.3008 93.1126 53.6699 93.7914C52.9395 94.6026 51.9186 95.0083 50.6071 95.0083C48.4324 95.0083 46.9799 94.2881 46.2494 92.8477C45.8925 91.5397 45.5356 90.2152 45.1787 88.8907C44.772 87.4669 43.8672 86.7632 42.4562 86.7798C42.3566 87.7152 42.3068 88.3775 42.3068 88.75C42.3068 90.9354 42.8463 92.4503 43.9336 93.2864L43.3028 94.644C42.0411 94.0315 40.489 93.7252 38.6546 93.7252C37.7499 93.7252 36.7953 94.0066 35.8076 94.5778L35.1518 93.4354C36.4467 91.9619 37.1024 89.3212 37.1024 85.4967C37.1024 81.192 36.3969 78.8162 34.9858 78.3609L35.542 77.293C37.119 77.6324 38.4554 77.8063 39.5593 77.8063C40.1736 77.8063 41.1281 77.7069 42.423 77.5165C43.7178 77.3261 44.8467 77.2268 45.8178 77.2268C48.2664 77.2268 50.1423 77.7483 51.4371 78.7831C52.5245 79.644 53.064 80.7119 53.064 81.9867C53.064 82.8973 52.7652 83.6672 52.1676 84.3129C51.5201 85.0083 50.6237 85.447 49.4866 85.6209L46.6644 86.0844C48.2249 86.1341 49.387 86.5646 50.1672 87.3675C50.6237 87.8228 51.0304 88.5596 51.3873 89.5778C51.6613 90.3725 51.9518 90.7699 52.2672 90.7699C52.7901 90.7699 53.0474 90.3891 53.0474 89.6275C53.0474 89.3708 53.0225 89.1805 52.9727 89.0728C53.4458 89.1225 53.8359 89.3543 54.1514 89.7765C54.4585 90.1821 54.6162 90.6954 54.6162 91.3162ZM46.9965 81.5811C46.9965 80.6954 46.764 79.9834 46.2909 79.4702C45.851 78.9983 45.3198 78.7665 44.6807 78.7665C43.6929 78.7665 43.0123 79.346 42.6388 80.5132C42.3649 81.4073 42.2237 82.8725 42.2237 84.9338C42.7467 85 43.1119 85.0331 43.3194 85.0331C45.768 85.0248 46.9965 83.8742 46.9965 81.5811Z"
    fill="#00583D"></path>
  <path
    d="M72.9849 78.3278C71.4743 78.8494 70.7189 81.25 70.7189 85.5381C70.7189 87.1275 70.8766 88.3527 71.1837 89.2301C71.3913 89.7931 71.7399 90.3477 72.2296 90.8775C71.4992 92.0116 70.445 92.9305 69.0755 93.6424C67.7059 94.3543 66.2533 94.7103 64.7344 94.7103C62.6427 94.7103 60.7751 94.3626 59.1399 93.6672C57.5961 93.0215 56.4672 92.1523 55.7534 91.0679C56.6415 89.9007 57.0897 87.9056 57.0897 85.0911C57.0897 82.8063 56.8905 81.1341 56.4838 80.0828C56.1601 79.2053 55.6372 78.659 54.9233 78.4272L55.6123 77.2848C56.9071 77.7566 58.4593 77.9884 60.2605 77.9884C61.6881 77.9884 62.9664 77.7566 64.1035 77.2848L64.5933 78.3278C63.6553 78.7004 62.9913 79.6606 62.6178 81.2003C62.2941 82.5166 62.1281 84.4619 62.1281 87.0613C62.1281 91.0182 63.2237 92.9967 65.415 92.9967C67.7972 92.9967 68.9925 90.803 68.9925 86.4239C68.9925 83.957 68.8596 82.2517 68.6023 81.308C68.2122 79.8758 67.3822 78.9073 66.1205 78.3858L66.6102 77.2931C67.2245 77.5828 68.3035 77.7318 69.8474 77.7318C70.7106 77.7318 71.5241 77.5828 72.3043 77.2931L72.9849 78.3278Z"
    fill="#00583D"></path>
  <path
    d="M85.6678 88.4686C86.2987 87.1689 87.3611 87.111 88.216 87.1606C89.071 87.202 90.8473 88.2202 90.8473 89.7931C90.8473 91.3659 90.0919 92.4504 88.7307 93.4272C87.2698 94.462 85.369 94.9835 83.0366 94.9835C80.3556 94.9835 78.1228 94.1226 76.3216 92.409C74.5869 90.7616 73.7153 88.7666 73.7153 86.4404C73.7153 83.8659 74.479 81.7716 76.0145 80.1573C77.5501 78.5431 79.6169 77.7318 82.2315 77.7318C82.8457 77.7318 83.7588 77.8394 84.954 78.0464C86.1576 78.2533 87.0789 78.361 87.7263 78.361C88.7971 78.361 89.6105 78.0961 90.1583 77.558C90.2579 77.9471 90.3077 78.3278 90.3077 78.7004C90.3077 80.0911 89.9342 81.1259 89.1872 81.8047C88.573 82.3676 87.7844 82.6573 86.8299 82.6573C86.1161 82.6573 85.452 82.3593 84.8378 81.7633C84.8212 81.7467 84.3564 81.1838 83.4516 80.0663C82.9619 79.4702 82.5137 79.1639 82.0904 79.1639C80.4718 79.1639 79.6584 81.0762 79.6584 84.8924C79.6584 90.6209 80.8951 93.4851 83.3603 93.4851C84.1406 93.4851 84.7714 93.212 85.2611 92.6573C85.6844 92.1689 85.892 91.6391 85.892 91.0514C85.892 90.4388 85.9667 90.0414 85.4852 89.2881C85.1615 88.7749 85.203 89.4288 85.6678 88.4686Z"
    fill="#00583D"></path>
  <path
    d="M109.98 89.5447C109.88 93.0712 107.374 94.8344 102.46 94.8344C101.646 94.8344 100.468 94.6606 98.9156 94.3129C97.3635 93.9652 96.2512 93.7914 95.5706 93.7914C94.1429 93.7914 93.205 94.0646 92.7485 94.6192L91.7773 93.7417C92.5244 92.856 93.0224 92.0116 93.288 91.2169C93.6117 90.1821 93.7777 88.6175 93.7777 86.5315C93.7777 81.9867 93.0639 79.2467 91.6362 78.3278L92.292 77.3841C93.1386 77.856 94.1263 78.0877 95.2635 78.0877C96.0935 78.0877 97.3303 77.9222 98.9904 77.5911C100.642 77.2599 101.821 77.0944 102.518 77.0944C104.303 77.0944 105.78 77.442 106.95 78.1374C108.054 78.7831 108.702 79.6109 108.901 80.6126C107.341 80.6126 105.689 81.101 103.937 82.0695C103.937 79.7103 103.074 78.5265 101.356 78.5265C100.592 78.5265 99.9947 78.9652 99.5631 79.8344C99.1315 80.7119 98.9156 81.9454 98.9156 83.5513C98.9156 84.0232 98.9571 84.553 99.0402 85.1573C100.227 83.6838 101.381 82.947 102.518 82.947C103.215 82.947 103.971 83.2119 104.792 83.7334C105.614 84.2632 106.311 84.5199 106.901 84.5199C107.565 84.5199 108.187 84.255 108.776 83.7169C108.926 84.0066 108.992 84.4536 108.992 85.0497C108.992 85.9851 108.685 86.7384 108.079 87.293C107.473 87.8477 106.643 88.1291 105.581 88.1291C104.784 88.1291 103.846 87.7732 102.759 87.053C101.671 86.3328 100.916 85.9768 100.493 85.9768C99.5216 85.9768 99.0319 87.1192 99.0319 89.3957C99.0319 92.0033 99.9615 93.303 101.829 93.303C102.576 93.303 103.174 93.0877 103.63 92.649C104.087 92.2103 104.311 91.6225 104.311 90.8775C104.311 90.3725 104.211 89.9338 104.02 89.5447C104.925 90.0166 105.83 90.2483 106.718 90.2483C107.888 90.2483 108.976 90.0083 109.98 89.5447Z"
    fill="#00583D"></path>
  <path
    d="M140.334 93.2036L139.845 94.5861C138.516 94.1639 137.122 93.9569 135.661 93.9569C134.117 93.9569 132.64 94.1639 131.229 94.5861L130.523 93.543C131.187 93.1705 131.627 92.6738 131.835 92.0447C132.059 91.3493 132.175 90.0745 132.175 88.2285C132.175 86.1672 132.026 84.4122 131.735 82.9553C131.005 84.106 129.569 87.8808 127.427 94.2881H126.937C126.614 93.1705 125.892 91.0762 124.771 88.0132C123.651 84.9503 122.995 83.2616 122.796 82.9553C122.439 85.5795 122.256 87.4503 122.256 88.5513C122.256 91.1755 122.962 92.7732 124.373 93.3444L124.032 94.5861C122.995 94.2301 121.941 94.048 120.87 94.048C119.932 94.048 119.052 94.2219 118.239 94.5861L117.583 93.394C118.554 92.9719 119.326 91.9536 119.899 90.3394C120.53 88.543 120.845 86.1175 120.845 83.0546C120.845 82.053 120.687 81.1341 120.38 80.298C120.073 79.4619 119.666 78.8907 119.16 78.5844L119.625 77.2765C120.546 77.798 121.833 78.0546 123.468 78.0546C125.236 78.0546 126.498 77.798 127.236 77.2765L127.726 78.4768C127.286 78.8659 127.07 79.3212 127.07 79.8427C127.07 80.2318 127.328 81.0017 127.851 82.1358C128.398 83.3278 128.705 84.3543 128.755 85.2152C129.469 83.601 129.859 82.7152 129.926 82.5662C130.366 81.4487 130.581 80.5381 130.581 79.8262C130.581 79.1308 130.274 78.7169 129.66 78.5844L130.075 77.2765C131.179 77.6987 132.665 77.9056 134.532 77.9056C135.794 77.9056 136.873 77.6987 137.745 77.2765L138.641 78.2781C137.52 79.0563 136.964 80.596 136.964 82.9056C136.964 85.7285 137.23 88.0712 137.769 89.9421C138.375 92.0364 139.23 93.1291 140.334 93.2036Z"
    fill="#00583D"></path>
  <path
    d="M158.636 89.5447C158.537 93.0712 156.03 94.8344 151.116 94.8344C150.303 94.8344 149.124 94.6606 147.572 94.3129C146.02 93.9652 144.907 93.7914 144.227 93.7914C142.799 93.7914 141.861 94.0646 141.405 94.6192L140.434 93.7417C141.181 92.856 141.687 92.0116 141.944 91.2169C142.268 90.1821 142.434 88.6175 142.434 86.5315C142.434 81.9867 141.72 79.2467 140.292 78.3278L140.948 77.3841C141.795 77.856 142.783 78.0877 143.92 78.0877C144.75 78.0877 145.987 77.9222 147.647 77.5911C149.298 77.2599 150.477 77.0944 151.174 77.0944C152.959 77.0944 154.436 77.442 155.607 78.1374C156.711 78.7831 157.358 79.6109 157.557 80.6126C155.997 80.6126 154.345 81.101 152.594 82.0695C152.594 79.7103 151.73 78.5265 150.012 78.5265C149.249 78.5265 148.651 78.9652 148.219 79.8344C147.788 80.7119 147.572 81.9454 147.572 83.5513C147.572 84.0232 147.613 84.553 147.696 85.1573C148.883 83.6838 150.037 82.947 151.174 82.947C151.871 82.947 152.627 83.2119 153.449 83.7334C154.27 84.2632 154.968 84.5199 155.557 84.5199C156.221 84.5199 156.843 84.255 157.433 83.7169C157.582 84.0066 157.649 84.4536 157.649 85.0497C157.649 85.9851 157.341 86.7384 156.735 87.293C156.13 87.8477 155.3 88.1291 154.237 88.1291C153.44 88.1291 152.502 87.7732 151.415 87.053C150.328 86.3328 149.572 85.9768 149.149 85.9768C148.178 85.9768 147.688 87.1192 147.688 89.3957C147.688 92.0033 148.618 93.303 150.485 93.303C151.232 93.303 151.83 93.0877 152.287 92.649C152.743 92.2103 152.967 91.6225 152.967 90.8775C152.967 90.3725 152.868 89.9338 152.677 89.5447C153.581 90.0166 154.486 90.2483 155.374 90.2483C156.536 90.2483 157.624 90.0083 158.636 89.5447Z"
    fill="#00583D"></path>
  <path
    d="M178.175 93.5926L177.661 94.5612C176.15 94.0562 174.955 93.8079 174.058 93.8079C172.581 93.8079 171.261 94.0562 170.091 94.5612L169.145 93.6423C169.925 93.0132 170.315 92.1191 170.315 90.9685C170.315 90.4221 170.19 89.6688 169.95 88.7085C169.493 89.3046 169.111 89.7019 168.804 89.9006C168.497 90.091 168.115 90.1903 167.659 90.1903C166.654 90.1903 165.874 89.9337 165.318 89.4122C165.268 89.6688 165.243 89.942 165.243 90.2151C165.243 91.7797 166.024 92.8807 167.584 93.5347L166.978 94.5612C165.667 94.0231 164.554 93.7582 163.641 93.7582C162.214 93.7582 161.301 94.0231 160.894 94.5612L159.948 93.6423C161.766 91.8294 162.869 89.9089 163.26 87.889C163.002 87.6489 162.703 87.5248 162.355 87.5248C162.064 87.5248 161.79 87.6572 161.525 87.9138C161.268 88.1704 161.11 88.4519 161.06 88.7416C160.197 88.3857 159.773 87.6986 159.773 86.6804C159.773 85.836 160.006 85.1324 160.479 84.5695C161.06 83.8741 161.898 83.5264 162.986 83.5264C163.459 83.5264 163.915 83.5844 164.372 83.7002C164.762 82.6489 164.953 81.6307 164.953 80.6456C164.953 80.0496 164.845 79.5529 164.637 79.1638C164.571 79.0645 164.339 78.7499 163.932 78.2201L164.513 77.3675C165.6 77.7897 166.903 77.9966 168.431 77.9966C170.406 77.9966 172 77.7648 173.203 77.293L174.009 78.0959C173.486 78.7582 173.228 79.3459 173.228 79.8675C173.228 81.3244 173.718 83.6423 174.689 86.8377C175.835 90.5628 176.988 92.8145 178.175 93.5926ZM169.394 86.9701C169.394 86.4486 169.194 85.5132 168.788 84.1555C168.398 82.8807 167.974 81.6804 167.526 80.5628H166.945C166.812 81.5148 166.63 82.4171 166.389 83.2532C166.181 83.9651 166.073 84.3873 166.073 84.5115C166.073 84.7681 166.405 85.3559 167.069 86.2582C167.75 87.2267 168.273 87.7151 168.63 87.7151C169.128 87.7234 169.394 87.4668 169.394 86.9701Z"
    fill="#00583D"></path>
  <path
    d="M196.577 85.6374C196.577 88.1788 195.855 90.2732 194.411 91.9206C192.9 93.6341 190.916 94.4951 188.451 94.4951C187.173 94.4951 185.944 94.3709 184.791 94.1308C183.629 93.8907 182.765 93.7666 182.201 93.7666C181.321 93.7666 180.45 94.0066 179.57 94.4951L178.599 93.5513C179.229 92.7732 179.661 92.053 179.885 91.3742C180.225 90.3063 180.4 88.6838 180.4 86.4818C180.4 83.7252 180.217 81.6805 179.86 80.356C179.586 79.3212 179.138 78.5762 178.524 78.1043L179.13 77.3262C180.134 77.798 181.271 78.0298 182.533 78.0298C183.504 78.0298 184.567 77.8725 185.712 77.5662C186.857 77.2599 187.688 77.1027 188.21 77.1027C190.709 77.1027 192.726 77.9056 194.27 79.5199C195.805 81.1424 196.577 83.1705 196.577 85.6374ZM190.634 86.4321C190.634 83.3609 190.369 81.2169 189.829 80C189.422 79.048 188.767 78.5679 187.854 78.5679C187.023 78.5679 186.434 79.1556 186.077 80.3394C185.72 81.5232 185.538 83.4686 185.538 86.1921C185.538 88.8659 185.72 90.7037 186.094 91.7302C186.451 92.649 187.065 93.1126 187.945 93.1126C188.982 93.1126 189.713 92.4504 190.136 91.1258C190.476 90.0828 190.634 88.5182 190.634 86.4321Z"
    fill="#00583D"></path>
  <path
    d="M216 85.7533C216 88.2451 215.212 90.3146 213.643 91.9702C211.991 93.7169 209.816 94.5944 207.119 94.5944C204.861 94.5944 202.861 93.899 201.109 92.5083C198.968 90.8113 197.897 88.4355 197.897 85.3974C197.897 83.4272 198.669 81.6226 200.213 79.9835C201.948 78.154 204.147 77.2434 206.812 77.2434C209.393 77.2434 211.568 78.0712 213.344 79.7351C215.112 81.3825 216 83.3941 216 85.7533ZM210.007 85.9272C210.007 83.5182 209.683 81.6805 209.036 80.4139C208.455 79.2798 207.683 78.7169 206.72 78.7169C205.749 78.7169 205.035 79.2302 204.579 80.2484C204.072 81.399 203.823 83.303 203.823 85.9769C203.823 88.2947 204.131 90.0745 204.745 91.3163C205.284 92.4669 205.99 93.0381 206.886 93.0381C207.808 93.0381 208.513 92.6325 209.003 91.8212C209.675 90.6871 210.007 88.7252 210.007 85.9272Z"
    fill="#00583D"></path>
  <path
    d="M241.233 78.5678C240.245 78.8079 239.316 79.9171 238.461 81.8956C237.813 83.3857 237.249 85.24 236.784 87.4502C236.411 89.2135 236.228 90.4221 236.228 91.0678C236.228 92.1357 236.552 92.889 237.199 93.3277L236.859 94.586C234.991 94.2797 233.671 94.1224 232.891 94.1224C231.87 94.1224 230.75 94.2797 229.53 94.586L229.164 93.3277C229.828 92.9387 230.16 92.235 230.16 91.2251C230.16 89.644 229.654 87.8642 228.65 85.8774C228.467 86.0678 228.168 86.8377 227.753 88.187C227.247 89.7102 226.998 90.894 226.998 91.73C226.998 92.086 227.064 92.3675 227.189 92.5827C227.272 92.7317 227.488 92.9801 227.845 93.336L227.405 94.6936C226.45 94.2383 225.413 94.0148 224.292 94.0148C223.055 94.0148 221.835 94.2052 220.615 94.5943L220.3 93.0959C220.864 92.7234 221.155 92.1108 221.155 91.2582C221.155 90.6787 220.914 89.3956 220.424 87.4089C219.86 85.1158 219.237 83.187 218.573 81.6224C217.71 79.6026 216.905 78.5512 216.141 78.4519L216.606 77.293C217.37 77.6489 218.731 77.831 220.698 77.831C222.225 77.831 223.504 77.6572 224.541 77.293L225.097 78.3195C224.383 78.9072 224.026 79.6191 224.026 80.4635C224.026 81.134 224.242 82.2681 224.674 83.8658C225.105 85.4635 225.537 86.7466 225.977 87.7069C227.031 84.7599 227.562 82.7069 227.562 81.5397C227.562 80.6539 227.214 79.9503 226.517 79.4536L227.031 78.5099C227.795 78.8658 228.882 79.0479 230.293 79.0479C231.04 79.0479 232.111 78.8989 233.505 78.6092L233.871 79.6026C233.398 79.9916 233.165 80.4966 233.165 81.134C233.165 82.5082 233.771 84.644 234.991 87.5413C235.788 84.7764 236.186 82.7152 236.186 81.3741C236.186 80.5297 236.004 79.8675 235.647 79.3873C235.39 79.0314 234.9 78.6506 234.186 78.245L234.726 77.3012C235.605 77.5744 236.419 77.7151 237.183 77.7151C238.834 77.7151 239.98 77.5744 240.611 77.3012L241.233 78.5678Z"
    fill="#00583D"></path>
  <path
    d="M258 88.5182C258 90.3808 257.303 91.8626 255.908 92.9636C254.414 94.1308 252.29 94.7102 249.534 94.7102C247.135 94.7102 245.193 94.2549 243.715 93.3526C242.387 92.5414 241.723 91.5728 241.723 90.4387C241.723 89.6275 242.014 88.9486 242.603 88.4023C243.284 87.7732 244.23 87.4586 245.45 87.4586C246.712 87.4586 247.691 87.9139 248.372 88.8162C247.849 88.9486 247.434 89.2053 247.118 89.6026C246.803 90 246.645 90.4139 246.645 90.8526C246.645 91.5977 246.969 92.1937 247.616 92.649C248.214 93.0877 248.944 93.303 249.808 93.303C250.688 93.303 251.401 93.0546 251.949 92.5662C252.497 92.0695 252.779 91.4652 252.779 90.7367C252.779 89.4619 251.841 88.5016 249.957 87.8725C248.206 87.3261 246.454 86.7798 244.703 86.25C242.819 85.389 241.881 84.0811 241.881 82.3179C241.881 80.9106 242.42 79.702 243.499 78.692C244.578 77.6821 245.998 77.1771 247.749 77.1771C248.596 77.1771 249.584 77.3675 250.721 77.7566C251.858 78.1457 252.713 78.3361 253.302 78.3361C254.132 78.3361 254.987 78.0215 255.884 77.3924C256.033 77.7649 256.099 78.2202 256.099 78.75C256.099 79.8675 255.809 80.745 255.22 81.399C254.68 81.9784 253.991 82.2765 253.153 82.2765C252.389 82.2765 251.684 81.9536 251.036 81.3079C250.53 80.6953 250.024 80.0745 249.501 79.4619C248.903 78.8162 248.28 78.4933 247.65 78.4933C247.243 78.4933 246.886 78.6672 246.579 79.0149C246.272 79.3626 246.114 79.6854 246.114 79.9751C246.114 80.8526 247.143 81.6308 249.202 82.3261C252.605 83.4768 254.514 84.1556 254.921 84.3626C256.971 85.3973 258 86.7881 258 88.5182Z"
    fill="#00583D"></path>
  <path
    d="M155.765 14.0149L155.565 13.7086C155.167 12.9884 155.283 12.5331 155.366 11.995C155.399 11.7219 155.599 11.159 155.98 10.7119C155.59 10.5712 155.225 10.1573 154.976 9.83445C154.702 9.54471 154.611 9.09769 154.802 8.75001C154.993 8.36094 155.242 7.9967 155.192 7.54968C154.669 7.8063 154.071 7.91392 153.524 8.12915C153.084 8.30299 152.81 8.67551 152.42 8.9073C152.229 9.00664 152.029 9.06458 151.839 9.13909L147.821 10.4553C146.443 11.1093 145.065 11.755 143.829 12.6242C143.38 12.9388 143.048 13.4023 142.567 13.6755C142.235 13.8825 141.812 13.659 141.613 13.3278C141.513 13.154 141.521 12.9636 141.579 12.7897C141.828 12.053 142.343 11.457 142.808 10.8527C143.198 10.7947 143.58 10.9272 143.97 10.952C144.227 10.9686 144.509 11.0099 144.742 10.8941C145.173 10.6374 145.348 10.1242 145.63 9.71856C145.646 9.37087 145.456 8.96525 145.705 8.70862C146.07 8.34438 146.601 8.2616 147.082 8.16226V8.02981L145.954 7.71524C145.821 6.90399 145.489 6.12584 144.949 5.51326C144.078 5.45531 143.107 5.45531 142.426 6.01822C142.194 6.2169 142.003 6.46525 141.845 6.73842C141.696 6.98677 141.496 7.2765 141.588 7.56624C141.729 7.93048 141.621 8.30299 141.339 8.56789C140.973 8.68379 140.583 8.66723 140.193 8.70862C139.147 8.82452 138.193 9.32948 137.338 9.90895L135.055 11.8792C133.769 13.0215 131.793 12.8311 130.141 13.3113C130.1 13.7003 130.2 14.106 130.316 14.4868L131.129 16.1507L130.216 17.8725L130.058 18.4686L130.739 21.2003L127.676 22.1109C127.66 22.2682 127.693 22.4338 127.751 22.5911C126.996 22.707 126.166 23.0546 125.933 23.7748L125.626 26.4818C125.261 26.6225 124.862 26.6556 124.464 26.6888L119.841 27.4669C119.06 27.5994 118.272 27.8725 117.55 28.2368C116.927 28.5513 116.429 29.048 115.865 29.4702C115.69 29.5861 115.574 29.7599 115.375 29.8345C115.101 29.9338 114.827 29.7517 114.562 29.6441L111.607 28.2947C110.868 27.9636 110.071 27.7897 109.274 27.7732C108.635 27.7566 107.996 28.005 107.606 28.4934C107.1 29.0977 106.809 29.851 106.867 30.6374C107.216 32.3179 108.328 33.7666 108.519 35.4719C108.619 36.4818 108.262 37.5083 107.689 38.3361C107.515 38.5844 107.324 38.7666 107.149 38.9984C107.108 39.0397 107.058 39.0977 107.075 39.1722C108.004 38.6507 109.034 38.3609 109.83 37.6987C110.445 37.1772 110.86 36.457 111.075 35.6871C111.325 34.7931 111.349 33.8659 111.308 32.9553C111.275 32.1854 111.134 31.3907 111.457 30.6954C111.673 30.2484 112.155 29.9752 112.661 29.8676C112.976 29.7931 113.3 29.8676 113.607 29.9421C114.23 30.0911 115.043 30.4056 115.026 31.0679C114.504 32.4835 114.371 34.048 114.462 35.5629L114.852 37.1275L116.927 43.3775C117.102 43.8825 116.96 44.404 116.77 44.8841C116.28 46.1672 114.985 46.9371 113.69 47.4421C113.483 47.7484 113.325 48.1043 113.225 48.4686C113.051 49.048 112.993 49.6523 112.976 50.2484C112.935 50.7533 113.051 51.2583 113.018 51.7633L112.221 54.8758L112.005 55.4139L110.959 56.8626C110.594 57.3676 110.752 58.0629 111.1 58.601C111.217 58.7914 111.474 58.9487 111.408 59.197C111.1 59.4868 110.594 59.5447 110.345 59.8924C110.245 60.0331 110.154 60.207 110.154 60.3974C110.694 61.5729 111.806 62.4503 113.059 62.7732C113.159 62.6821 113.275 62.5662 113.366 62.4504C113.698 61.9868 113.848 61.4239 113.873 60.8609C113.931 59.9835 113.674 59.0977 113.483 58.245C113.325 57.5497 113.383 56.8295 113.557 56.1341L115.251 51.2583C115.425 50.7533 115.74 50.2732 116.106 49.8593C116.828 48.9901 117.973 48.659 118.936 48.0629L121.202 46.3825C122.14 45.6871 122.771 44.6358 123.177 43.5182L123.717 39.5861C123.833 38.808 124.256 38.0795 124.879 37.6325C125.053 37.5166 125.261 37.4255 125.46 37.3758C126.431 37.0696 127.344 36.5397 128.373 36.4652C127.369 35.2235 126.879 33.6258 126.705 32.053L126.78 31.399C127.842 31.6474 128.938 31.8212 130.042 31.7881C130.581 31.7881 131.129 31.7881 131.594 31.5315C132.175 31.2252 132.623 30.7037 133.03 30.1904C133.711 28.6755 134.466 27.1523 135.437 25.7947C135.752 25.3477 136.101 24.8841 136.566 24.5944C136.798 24.4371 137.072 24.3626 137.346 24.2633L140.799 23.6672C141.613 23.5182 142.351 23.1871 143.09 22.856L145.929 20.9603L147.68 20.3063C148.261 18.9487 149.041 17.649 150.187 16.6888C150.635 16.3162 151.158 15.9354 151.756 15.952C152.22 15.9686 152.61 16.2086 152.959 16.4984C153.391 16.846 153.963 16.9868 154.478 17.1192C155.25 17.3345 156.03 17.5662 156.827 17.5662L157.026 17.4255L157.939 15.803C157.225 15.1739 156.296 14.8013 155.765 14.0149Z"
    fill="#00583D"></path>
  <path
    d="M215.594 15.563L214.98 13.2616C214.789 12.6408 214.34 12.0861 213.892 11.6143L215.253 10.2153L215.104 10.0166L214.498 10.0414L214.672 9.36262L214.515 9.28812L213.062 10C212.73 10.1739 212.498 10.4636 212.149 10.5961C211.776 10.7285 211.377 10.7534 210.987 10.7285C210.389 10.6871 209.825 10.4719 209.236 10.3808C208.655 10.2898 208.074 10.2318 207.493 10.2236L204.015 10.4222C202.263 10.6788 200.487 11.0596 198.852 11.7798C198.312 12.0282 197.881 12.4338 197.316 12.6159C197.258 12.6325 197.2 12.6159 197.142 12.6159C196.387 12.2103 195.548 11.7219 195.357 10.8775C195.316 10.3726 195.324 9.85103 195.449 9.36262C195.723 9.24673 195.955 9.65236 196.262 9.66891C196.569 9.66891 196.827 9.49507 197.117 9.43713C197.35 9.37918 197.607 9.43713 197.814 9.27984C198.146 9.00666 198.362 8.61759 198.719 8.35269L200.138 8.42719L199.574 7.55799C199.848 7.11097 200.022 6.63084 200.08 6.12587L199.4 3.94044L197.208 3.75004C196.644 3.67554 196.088 3.99838 195.689 4.3709C195.573 4.47024 195.482 4.60269 195.44 4.73514C195.349 4.93381 195.474 5.15732 195.382 5.356L194.453 6.05136L192.278 5.76163L191.714 5.85269C190.975 6.22521 190.22 6.57289 189.423 6.87918C189.074 7.01163 188.526 6.89574 188.352 7.28481C188.352 7.31792 188.369 7.35931 188.369 7.38415C188.916 7.94706 189.381 8.61759 189.763 9.32123C190.967 9.9007 192.17 10.5216 193.183 11.3742C193.78 11.8792 194.212 12.558 194.42 13.2947C194.727 14.3212 194.735 15.4388 193.739 16.2914C191.606 16.5977 191.73 16.9951 190.742 17.1358C190.103 17.2186 189.497 16.7964 188.999 16.3742L188.12 16.2832L186.227 16.5894C185.024 16.4901 183.994 16.0679 182.849 15.7947C182.691 15.7534 182.558 15.6954 182.401 15.6954L181.836 16.0017C180.691 16.9454 179.603 17.9388 178.582 19.0232C177.163 20.9189 178.408 23.7418 177.479 25.9272L183.222 26.8543C183.455 26.8957 183.604 27.1027 183.745 27.2765C184.003 27.5663 184.21 27.9305 184.401 28.2616L185.198 30.2732L191.257 30.356L191.855 30.4305C192.203 30.7782 192.627 31.0845 193.058 31.3163C194.469 32.053 196.179 31.8957 197.715 31.5067C199.151 31.1341 200.354 30.149 201.732 29.5944C202.28 29.3626 202.861 29.2053 203.459 29.2053V29.4206C203.052 30.5795 202.297 31.5729 201.309 32.3179C201.118 32.4586 200.944 32.5911 200.728 32.6656C200.338 32.798 199.914 32.6325 199.499 32.6822C198.993 32.7567 198.644 33.3775 198.155 33.2782C197.715 33.2037 197.474 32.6739 197.034 32.6739C196.129 33.0464 195.366 33.6755 194.685 34.3543C194.552 34.4123 194.436 34.5116 194.486 34.6441C195.225 35.1656 196.096 35.4802 196.993 35.6706L199.317 35.803C199.723 35.8361 200.114 35.6457 200.462 35.4719C201.101 35.1656 201.633 34.7351 202.155 34.2881C202.828 33.4355 203.55 32.6077 204.372 31.8626L204.546 31.8295C204.704 33.063 203.965 34.3295 202.861 34.8676C202.587 35 202.255 35.058 202.081 35.298C201.965 35.4884 201.882 35.6706 201.865 35.8941C201.45 35.9686 201.027 35.9106 200.587 35.952C200.545 35.952 200.487 35.952 200.437 35.9686C199.74 36.5894 199.059 37.2682 198.578 38.063C198.503 38.1788 198.404 38.3196 198.478 38.452C198.561 38.6259 198.786 38.6838 198.968 38.7666C199.981 39.2716 201.276 39.4206 202.263 38.8411C203.019 38.2037 203.724 37.4669 204.297 36.6308C204.895 35.7533 205.252 34.7186 205.691 33.7666C206.314 32.409 207.011 31.0762 207.883 29.8345C207.941 29.2384 207.476 28.7335 206.986 28.4024C206.887 28.361 206.795 28.303 206.737 28.2285C206.945 27.5083 206.538 26.755 206.015 26.25C205.567 25.803 204.853 25.8444 204.231 25.9437C203.301 26.0762 202.313 26.6639 201.45 26.308C201.55 26.1341 201.724 26.0182 201.84 25.861C202.131 25.5547 202.288 25.1408 202.421 24.7351C202.454 23.2037 202.803 21.6391 203.625 20.3229C204.521 18.9239 206.048 17.9057 207.675 17.6656C207.982 17.8229 208.14 18.1292 208.356 18.3858C208.721 18.808 209.095 19.1805 209.543 19.4868C209.908 19.7434 210.315 19.8345 210.73 19.9752C211.02 20.0745 211.294 20.1904 211.51 20.4388C211.701 20.6457 211.784 20.9189 211.933 21.159C212.514 22.1027 213.112 23.0133 213.776 23.8908C214.224 24.1226 214.731 24.0398 215.229 24.0232C215.619 24.0232 216.042 24.2136 216.391 24.0067C216.582 23.9073 216.681 23.7169 216.781 23.5596L217.171 22.202L217.138 21.4487L215.893 18.7914L215.627 17.7484L215.594 15.563Z"
    fill="#00583D"></path>
  <path
    d="M113.341 35.6042L113.25 33.5678C113.341 32.6241 113.416 32.6986 113.798 31.3575C113.449 31.0678 112.852 30.8526 112.553 31.2251C112.395 31.4155 112.412 31.6887 112.345 31.937L112.478 34.9751C112.511 35.4966 112.345 35.985 112.171 36.4486C111.839 37.2185 111.391 37.9055 110.793 38.4767C109.556 39.6522 107.88 40.24 106.211 40.4138C105.821 40.4552 105.381 40.5463 105.049 40.2814C104.892 40.182 104.917 39.9668 105.033 39.8178C105.24 39.5446 105.523 39.3542 105.755 39.081C106.477 38.187 107.191 37.1274 107.241 35.9685C107.241 35.5463 107.017 34.942 106.917 34.5198C106.22 32.9718 105.439 31.5396 105.547 29.8592L105.938 28.3277C105.157 27.8062 104.302 27.3178 103.356 27.2433L102.601 28.6588L100.966 29.4867C100.426 29.7433 100.268 30.5132 99.7288 30.7201C98.5834 30.4718 97.4047 30.3145 96.2344 30.331C94.7237 30.3476 93.3044 31.1009 92.217 32.1522C91.8518 32.3095 91.4617 32.3509 91.0716 32.3426L89.6605 31.9039C89.2123 31.6059 88.8471 31.3161 88.4819 31.0016C87.5273 30.1324 86.7803 29.081 85.6016 28.5347C84.8297 28.1704 83.9333 28.0545 83.1364 28.3277C81.8748 28.8492 80.9451 30.0661 80.8455 31.4237L81.6092 35.5794C81.6507 36.7632 80.97 37.9055 79.9823 38.5595C79.891 38.6175 79.7499 38.6506 79.7665 38.7582C80.5633 39.1638 81.4349 39.4204 82.323 39.3211C83.4435 39.2052 84.5392 38.6671 85.1534 37.7317C85.5435 37.1274 85.6763 36.3741 85.7593 35.6456L85.7012 32.6075C85.7012 32.2019 85.9751 31.8294 86.3819 31.7383C86.689 31.6638 86.8218 31.73 87.1538 31.7632L87.5937 31.9618L88.4487 32.3592L90.6234 33.5678C90.0921 35.538 89.8597 37.0777 89.9427 39.1059C90.2581 40.389 90.6482 41.7714 91.5281 42.7565C92.9308 44.2714 94.9478 45.1241 96.3838 46.5893C97.2138 47.7896 97.8032 49.2218 97.604 50.629L96.6494 53.8575C96.5581 54.1224 96.7656 54.3625 96.8984 54.5694C97.4628 55.4221 98.1435 56.192 98.932 56.8211C99.8036 57.1936 100.617 57.6903 101.314 58.3277C102.327 59.3873 103.173 60.629 103.763 61.9618C104.128 62.1605 104.56 62.1605 104.941 62.3344C105.041 62.4834 105.074 62.6655 105.058 62.8393L104.593 64.1224C104.518 64.3128 104.676 64.4949 104.767 64.6439C105.141 65.2979 105.987 65.5132 106.701 65.6539C107.207 65.7532 107.822 65.9436 108.154 65.5214C108.154 64.6522 108.021 63.783 107.805 62.9469C107.481 62.1357 107.05 61.3575 106.444 60.7449L104.062 58.8824L101.613 55.8443C100.999 55.091 100.625 54.0893 100.775 53.1208C100.991 51.6307 101.613 50.2234 102.269 48.8658C102.543 47.9221 102.617 46.9122 102.327 45.985C102.169 45.6125 101.945 45.2648 101.704 44.9254C101.356 44.4618 100.816 43.9155 101.165 43.4188C101.314 43.2036 101.555 43.0545 101.804 43.0877C104.153 44.0396 106.66 44.6936 109.2 44.8095C111.349 44.8675 113.524 44.6108 115.558 43.9155C115.699 43.7251 115.657 43.4933 115.641 43.2615C114.628 40.836 113.732 38.1953 113.341 35.6042Z"
    fill="#00583D"></path>
  <path
    d="M170.946 32.4006L170.348 32.2102C169.883 32.053 169.609 31.5728 169.161 31.3741L166.854 31.9702L162.239 32.7069L159.292 32.8394L158.205 35.4304C157.947 36.0513 157.549 36.6142 157.059 37.053C156.578 37.4751 155.914 37.5579 155.466 37.9967L154.652 39.4039C154.536 39.6192 154.32 39.7682 154.088 39.851L152.668 39.6026C152.511 39.5695 152.361 39.6854 152.237 39.7599L151.481 42.8228V43.1539C151.481 43.3112 151.697 43.2698 151.813 43.2947C152.61 43.5265 153.407 43.0877 154.129 42.7152C154.752 42.3841 155.316 41.9371 155.814 41.4155L157.466 38.9569C157.898 38.3195 158.512 37.8145 159.151 37.3675H159.367L158.985 40.1324C158.927 40.5629 158.678 40.9685 158.346 41.25C157.798 41.697 156.935 41.788 156.653 42.4337C156.561 42.6076 156.553 42.8228 156.404 42.9553L155.167 43.1126C154.968 43.1291 154.835 43.3112 154.719 43.4437C154.445 44.048 154.212 44.6854 154.021 45.3063C153.905 45.6539 153.772 46.0182 153.822 46.3907C154.021 46.49 154.254 46.4486 154.478 46.4073C155.391 46.2665 156.262 45.9023 157.084 45.5132C157.698 45.2069 158.304 44.9089 158.786 44.4122C159.267 43.9073 159.583 43.2698 159.89 42.649C160.529 41.2169 160.67 39.6109 161.135 38.1208C161.384 37.2682 161.699 36.4321 162.064 35.6043C162.471 35.1407 163.135 34.942 163.733 34.7516L168.364 34.288C170.074 34.1308 171.759 33.5347 173.046 32.4089C172.357 32.3758 171.643 32.4586 170.946 32.4006Z"
    fill="#00583D"></path>
  <path
    d="M101.646 25.6456L101.314 25.447C101.123 25.3311 100.908 25.2566 100.825 25.0579C100.675 24.7102 100.841 24.3046 100.966 23.9569C101.024 23.7831 101.182 23.6258 101.157 23.4188C100.559 23.6341 99.978 23.9072 99.4633 24.2715C99.1147 24.5198 98.7993 24.7599 98.3926 24.8923C98.0274 25.0248 97.6207 25.0496 97.2472 25.149C94.2424 25.9602 91.5199 27.6655 89.2124 29.7516C89.1875 29.8427 89.2539 29.9089 89.312 29.9586C89.6274 30.2483 89.8764 30.6374 90.2666 30.8443C90.6318 31.0513 91.08 31.2499 91.4369 31.0347C92.076 30.6622 92.6156 30.091 93.2962 29.7764C95.0808 28.9238 97.1974 28.8327 99.0815 29.4039C99.2392 29.3874 99.3388 29.2632 99.4301 29.1307C100.036 28.4188 100.941 27.9884 101.812 27.6076C101.953 27.4917 102.003 27.3178 101.953 27.1605C101.895 26.9867 101.696 26.9122 101.663 26.7384L101.879 26.0264C101.821 25.894 101.746 25.7615 101.646 25.6456Z"
    fill="#00583D"></path>
  <path
    d="M104.792 52.3096L104.194 52.0943C103.688 51.8626 103.182 51.6059 102.717 51.2831C102.194 52.1109 101.903 53.1208 102.111 54.0894C102.327 55.2731 103.339 56.1423 104.203 56.995C104.584 57.0695 104.958 57.0695 105.29 56.9536C105.423 56.8957 105.448 56.7218 105.423 56.5894C105.232 56.0678 104.941 55.5877 104.709 55.0579C104.676 54.9669 104.618 54.8592 104.634 54.7433C104.966 54.7268 105.315 54.8427 105.531 55.0745L106.054 56.2914C106.303 56.8294 107.058 56.7384 107.639 56.7384C108.029 56.7384 108.419 56.6639 108.784 56.5645C109.116 56.4735 109.614 56.3907 109.565 56.0099L108.942 55.1241L107.158 53.3857C107 53.245 106.784 53.1871 106.56 53.0712C105.987 52.7814 105.39 52.5496 104.792 52.3096Z"
    fill="#00583D"></path>
  <path
    d="M95.0892 47.1441C95.7864 47.9553 96.2181 49.0066 96.2098 50.0662C95.0477 49.7765 93.8774 49.5861 92.6987 49.4288C91.9185 49.3295 91.1465 49.3874 90.3663 49.346C89.7853 49.3046 89.2043 49.3792 88.6232 49.3046C87.9094 49.2301 87.2039 48.9901 86.5896 48.5844C85.1703 49.2798 83.5766 49.5282 81.9912 49.5695C79.6588 49.6606 77.3098 49.553 75.0023 49.1474L70.8937 48.1623C70.1881 48.1043 69.4411 48.0298 68.8103 48.3609C68.5447 48.4934 68.304 48.6507 68.0964 48.8493C67.615 49.6275 67.0672 50.3808 66.4447 51.0762C65.9383 51.6225 65.3988 52.1854 64.7348 52.5497C64.0376 52.9388 63.2241 53.2285 62.4439 53.0878C60.3439 52.7401 58.2854 52.1606 56.2933 51.399C55.4965 51.2997 54.708 51.4321 53.9858 51.7301C53.6538 51.8626 53.3882 52.1192 53.1143 52.3676C52.5084 52.9636 52.0435 53.6838 51.4625 54.3046C50.6657 55.1573 49.8108 55.9354 48.8396 56.5894C48.74 56.6308 48.6404 56.6722 48.5657 56.7467C47.7855 56.7715 46.9969 56.8874 46.2416 57.1109C45.8515 57.2103 45.4697 57.3841 45.0961 57.4835C44.5317 57.6159 43.9341 57.6987 43.3531 57.6987C42.8634 57.6656 42.2823 57.7401 41.8922 57.3924C41.7345 57.2351 41.7926 57.0033 41.8341 56.7964C41.8922 56.548 41.9835 56.308 42.0665 56.0596C42.2989 55.4967 42.6475 54.9421 43.129 54.5282C42.6641 54.5282 42.191 54.6275 41.7262 54.6275C41.4689 54.644 41.1867 54.6275 40.9543 54.5116C40.7053 54.3626 40.7634 54.0315 40.8547 53.7914C41.0041 53.3609 41.2448 52.9801 41.5104 52.6159C41.9752 51.9785 42.5728 51.4156 43.295 51.1424C43.9009 51.1258 44.2246 51.9537 44.8305 52.0282C45.395 52.1027 45.7436 51.3328 46.3246 51.2335C46.7645 51.159 47.1795 51.4239 47.6278 51.3659C48.325 51.3245 49.0222 51.0927 49.6613 50.803C50.3005 50.4884 50.923 50.1076 51.3463 49.5447C51.7198 49.0563 52.0103 48.5017 52.4503 48.0712C52.8404 47.6821 53.3633 47.2765 53.8696 47.4752C54.8159 48.154 55.9032 48.7169 57.0487 48.6589C57.6131 48.6424 58.2688 48.452 58.4265 47.8891C58.4846 47.2351 58.4099 46.5729 58.0945 45.9934L56.9076 43.6921C56.6502 42.9719 56.7166 42.1854 56.8744 41.4487C57.1068 40.3891 57.5384 39.3957 57.9783 38.4272C57.9617 38.2699 57.9451 38.1126 57.8455 37.9967C57.2064 37.3427 56.368 36.8709 55.4799 36.6225C55.0898 36.5646 54.6997 36.5646 54.3178 36.6639C54.1601 36.7053 54.0273 36.8378 53.8862 36.9123C53.4795 37.2186 53.2471 37.7401 53.3218 38.245C53.5127 39.5447 54.8574 40.3311 55.4716 41.4984C55.6874 41.8874 55.8451 42.3344 55.8949 42.7732C55.9945 43.7583 55.621 44.7682 54.8491 45.447C52.9898 47.0861 49.5949 46.5729 48.3333 44.4371C48.3333 44.3792 48.3499 44.3212 48.408 44.2964C48.8977 43.9238 49.5866 43.9818 50.0432 43.5844C50.6657 43.0795 51.2218 42.2848 50.9977 41.4901C50.5495 39.9835 49.9851 38.4851 49.2878 37.0613C49.1301 36.4818 49.0886 35.8858 49.3044 35.3229C49.6115 34.4868 50.4084 33.8162 51.3048 33.75C53.4961 33.75 55.5961 34.6606 57.4388 35.8444C58.0447 36.2748 58.7004 36.9536 59.3645 36.6556L62.2364 35.3974C63.1909 35.1821 64.1787 35.2401 65.1415 35.3808C65.7391 35.4967 66.3036 35.654 66.8929 35.654C66.9344 34.8841 67.4158 34.1391 68.1296 33.8328C68.1877 33.2119 68.3455 32.6159 68.5779 32.0364C68.7937 31.8791 69.0427 32.053 69.2751 32.1192C70.1715 32.4089 71.1178 32.6407 72.0557 32.7401L72.4458 32.6076C72.5205 32.3013 72.2134 32.0447 72.1138 31.7715C72.0391 31.5397 71.9644 31.308 71.9146 31.0762C71.7237 30.356 71.6407 29.5695 71.8731 28.8328L71.3087 28.2864C71.0016 27.6325 70.5948 26.9537 70.6696 26.2335C70.7277 26.1176 70.8854 26.1176 71.0182 26.0927C71.5577 25.9934 72.0308 25.745 72.5537 25.5712C73.1182 25.4139 73.6992 25.2815 74.2636 25.0911C74.8612 24.9007 75.4423 24.6689 75.9735 24.3378C77.2102 23.6176 78.2478 22.5993 79.3849 21.7053C80.1984 21.0513 81.1944 20.6788 82.2403 20.6374C82.5142 20.3642 82.5889 19.9172 82.8877 19.6854C82.9043 19.5861 82.9458 19.4702 82.8877 19.3957C82.8296 19.3212 82.73 19.2964 82.6885 19.2053C82.647 19.106 82.6885 18.9901 82.7466 18.899C83.1201 18.2616 83.8339 17.856 84.5561 17.6242C85.2367 17.4917 85.9505 17.4338 86.6477 17.4669C86.7888 17.5497 86.8386 17.7152 86.9051 17.856C87.1375 18.245 87.4114 18.6341 87.5857 19.0397C87.6604 19.4619 87.511 19.851 87.428 20.2732L88.2414 20.8527V21.0017L87.096 21.2914C86.7473 21.548 86.5149 21.9537 86.3987 22.3924C85.9754 22.5497 85.5438 22.7401 85.2118 23.0712C85.1122 23.1705 85.0209 23.3278 84.8632 23.3278C84.5727 23.2864 84.2987 23.1954 84.0248 23.0546C83.8754 22.9967 83.7177 22.8642 83.6181 23.0381C83.8671 23.75 84.058 24.5447 83.7509 25.2401C83.3359 25.9189 82.9541 26.5977 82.6304 27.3262C81.6011 27.8642 80.5885 28.5679 79.9909 29.553C79.5592 30.3063 79.4098 31.2169 79.5841 32.0695L80.1652 35.2401C80.1984 35.7285 80.2648 36.2417 80.0822 36.6887C79.9328 37.0199 79.6339 37.2517 79.36 37.4669C78.8703 37.8394 78.3889 38.2037 77.8245 38.4189C77.6668 38.4768 77.4924 38.4934 77.3928 38.6341C77.4675 38.7748 77.5838 38.8907 77.7 38.9818C78.1316 39.2964 78.613 39.5447 79.0778 39.7599C80.3395 40.3974 81.792 40.8609 83.1699 40.5712C84.2572 40.3394 85.2616 39.6854 86.0169 38.8493C87.1873 37.2268 87.3201 35.1904 87.0462 33.2202L89.1046 34.1639C88.5983 36.0596 88.4489 38.154 88.7394 40.1904C88.9386 41.1176 89.3454 41.9868 89.9015 42.7484C90.5074 43.6176 91.2461 44.4123 92.1509 44.9917L93.9189 46.1341C94.309 46.4487 94.6991 46.7964 95.0892 47.1441ZM44.789 54.2467C44.7724 54.2798 44.7724 54.3212 44.789 54.346C44.8637 54.5447 45.121 54.5199 45.2788 54.6192C45.4946 54.7351 45.727 54.8676 45.976 54.9255C46.4823 55.0166 46.7479 54.3295 47.2542 54.2467C47.9266 54.1308 48.6155 54.3792 49.2546 54.1143C50.01 53.808 50.4997 53.0878 50.8234 52.3344C50.6159 52.3676 50.4001 52.409 50.2009 52.4503L47.9266 53.4934C46.9056 53.8245 45.8183 53.9239 44.789 54.2467Z"
    fill="#00583D"></path>
  <path
    d="M192.353 12.2351C192.618 12.4338 192.892 12.6407 193.066 12.9139C193.374 13.3444 193.448 13.9155 193.415 14.4288C193.315 14.8924 192.967 15.2814 192.519 15.4718C192.153 15.6126 191.747 15.6291 191.373 15.7864C191.174 15.8609 190.983 15.9768 190.767 15.9851C190.302 16.0182 190.045 15.4967 189.647 15.2483C189.124 14.9172 188.485 15.0165 187.895 15.0414C187.231 15.0579 186.592 15.3559 185.92 15.3146C184.675 15.2566 183.48 14.793 182.409 14.1887C182.093 14.1887 181.828 14.346 181.554 14.5033C181.164 14.7516 180.782 15.0414 180.425 15.3394C179.221 16.3493 178.234 17.5497 177.263 18.7831C176.931 19.2467 176.623 19.7682 176.599 20.3311L176.441 24.9586C176.383 25.2732 176.325 25.596 176.225 25.9023C176.184 26.1175 176.051 26.2914 176.034 26.5066C176.018 26.6225 175.976 26.7963 176.117 26.8543L179.769 27.6904C180.74 27.8311 181.703 27.9222 182.666 28.154C182.874 28.3112 183.056 28.4768 183.131 28.7003L183.637 30.447C183.654 30.6043 183.695 30.7699 183.654 30.9106C183.579 31.2169 183.363 31.4155 183.131 31.6059C182.143 32.0364 181.131 32.4586 180.292 33.1291C179.296 33.9404 178.566 35.0414 177.902 36.1258C177.42 36.6308 176.848 37.0778 176.208 37.3593C174.266 38.1954 172.266 38.9238 170.199 39.3543C169.892 39.2963 169.552 39.2384 169.402 38.9652C169.303 38.75 169.518 38.5182 169.651 38.3112C169.9 37.8891 170.199 37.5 170.531 37.1357L169.17 36.6308C169.128 36.4321 169.303 36.2665 169.427 36.1093C170.025 35.505 170.689 35 171.461 34.6026C171.768 34.4619 172.067 34.2881 172.39 34.346L174.756 34.793C175.976 34.6523 176.889 33.6175 177.669 32.6655C178.134 32.0695 178.557 31.4321 178.831 30.745C176.482 30.8775 174.133 31.5728 171.801 31.1341C171.411 31.0596 170.971 31.0348 170.622 30.8195C170.373 30.6457 170.216 30.3891 170.058 30.1076C169.278 30.0248 168.522 30.3559 167.75 30.5712C166.622 30.8775 165.476 31.1175 164.297 31.3079C163.716 31.3659 163.169 31.5811 162.571 31.5977L156.769 31.6804C155.582 31.7963 154.32 31.8543 153.316 32.5331C153.059 32.7235 152.826 32.9553 152.619 33.1871C152.486 33.3278 152.27 33.4768 152.229 33.7086L151.839 36.0927C151.473 37.293 150.677 38.3361 149.747 39.1722L145.788 42.0033C145.298 42.4834 144.817 42.9884 144.659 43.6341C144.401 45.4139 144.078 47.1606 143.704 48.9155C143.53 49.6275 143.43 50.3311 143.181 51.0099C142.6 52.6159 141.43 54.0314 139.878 54.7682C139.762 54.8427 139.662 54.9255 139.529 54.9255C139.371 54.9586 139.214 54.8675 139.122 54.7516C138.89 54.4785 138.907 54.0977 138.865 53.75C138.774 53.1291 138.766 52.4917 138.79 51.8708C138.824 51.6225 138.832 51.3162 139.081 51.2169C139.629 50.9851 140.243 50.9603 140.824 50.7533L140.998 50.5463C140.982 50.0579 141.081 49.5447 141.347 49.1556C141.621 48.692 141.986 48.2699 142.16 47.7649C142.476 46.8957 142.567 45.9851 142.642 45.0745C142.559 44.7848 142.351 44.553 142.252 44.2798C142.119 43.8742 142.044 43.4685 142.036 43.0629C142.003 42.5414 141.961 41.9619 142.285 41.5314C142.492 41.2417 142.849 41.1672 143.123 40.9851C143.53 40.7285 143.937 40.4387 144.252 40.0745C144.659 39.6109 145.149 39.0646 145.066 38.4271C144.02 39.0646 142.833 39.495 141.862 40.2483C140.907 40.9851 140.052 41.8708 139.338 42.8642C139.181 43.154 139.006 43.4271 138.948 43.7417L138.052 48.8162C138.01 49.7848 138.019 50.7699 137.628 51.6473C137.296 52.5 136.624 53.1705 135.977 53.8328C135.221 54.6026 134.383 55.3394 133.453 55.9271C133.146 56.0844 132.698 56.2334 132.441 55.9602C132.358 55.8692 132.308 55.7533 132.25 55.6291C132.324 54.4867 132.54 53.3444 132.897 52.2599L133.171 51.9536C133.677 51.9122 134.242 51.9205 134.649 51.6059C134.823 51.4569 134.864 51.2583 134.864 51.043C134.906 50.3808 135.288 49.7848 135.736 49.3046C136.184 48.7831 136.549 48.1871 136.632 47.5248L137.039 44.7185C137.039 43.7252 136.516 42.7649 136.574 41.7715C136.607 41.3493 136.69 40.9437 136.865 40.5546C137.23 39.7434 138.043 39.2384 138.558 38.5182C139.396 37.3758 139.961 36.043 140.401 34.702C140.534 34.048 140.633 33.3692 140.417 32.7649C140.21 30.9851 140.318 29.1887 140.724 27.4586C140.874 26.9205 141.015 26.4155 141.264 25.9354L141.247 25.7202C140.55 25.505 139.811 25.7947 139.205 26.2003C138.375 26.7467 137.944 27.6738 137.637 28.601L135.811 34.6606C135.595 35.091 135.421 35.5712 135.113 35.9354C134.549 36.6473 133.752 37.1523 132.847 37.293C131.909 37.4503 130.872 37.2765 130.183 36.6142C129.054 35.5298 128.34 34.0811 127.934 32.5745C129.021 33.1126 130.316 33.3278 131.428 32.9222C131.851 32.7814 132.208 32.5331 132.573 32.2682C133.213 31.7798 133.835 31.2003 134.242 30.4884L136.433 26.6225C136.939 25.9851 137.537 25.3642 138.334 25.2069C139.695 25.091 141.056 25.0083 142.368 24.6275C142.775 24.5116 143.181 24.3377 143.513 24.1059L146.925 21.8212C147.647 21.4569 148.402 21.1424 149.216 21.0679C149.988 20.9934 150.768 21.0265 151.523 20.8195C151.673 20.6871 151.698 20.505 151.756 20.3311C151.872 20 152.03 19.6357 152.303 19.4205C152.552 19.2301 152.884 19.1887 153.084 18.9321C153.275 18.6589 153.333 18.3112 153.548 18.0795C154.636 18.4106 155.781 18.6175 156.91 18.6838C157.201 18.6506 157.508 18.6093 157.74 18.4354C158.479 17.6076 159.043 16.6308 159.375 15.5546L159.359 15.2649C158.637 14.6606 157.632 14.3957 157.01 13.6755C156.578 13.1705 156.371 12.4006 156.645 11.7963C156.777 11.5397 156.952 11.2914 157.035 11.0016C156.744 10.2483 156.603 9.42879 156.669 8.60098C156.711 8.12085 156.769 7.61588 157.043 7.21025C157.159 7.05297 157.333 6.96191 157.524 7.01158L159.566 7.35926C159.956 7.39237 160.346 7.35926 160.728 7.27648C161.309 7.13575 161.915 6.98674 162.438 6.67217L166.995 3.83277C167.543 3.61754 168.124 3.55959 168.722 3.50164C168.979 3.46853 169.269 3.46853 169.477 3.30297C169.842 2.9884 169.651 2.40893 169.435 2.0033C169.917 0.662238 171.469 0.0910459 172.855 -0.0496826C173.494 0.107602 173.81 0.78641 174.142 1.34105C174.357 1.78807 174.49 2.25164 174.739 2.69866L175.453 3.02151V3.12085L174.092 3.44369C173.918 3.79138 173.918 4.16389 173.918 4.54469L172.83 5.80297C172.233 6.00164 171.569 5.9023 170.988 5.67052C170.954 6.65561 170.855 7.64071 170.656 8.5927C170.697 9.09767 170.863 9.6523 171.295 9.93376C171.735 10.2401 172.224 10.4222 172.714 10.596C172.847 10.5795 172.971 10.5215 173.121 10.447L175.627 8.8576L180.193 7.19369C181.321 6.87913 182.484 6.65562 183.662 6.65562C184.276 6.45694 184.708 5.9023 185.289 5.62913C185.663 5.45528 186.086 5.32283 186.451 5.12416C186.509 5.35595 186.318 5.58773 186.293 5.81952L186.874 5.97681L186.335 7.04469L186.351 7.23509C186.916 7.93045 187.829 8.30297 188.31 9.05628C188.518 9.37912 188.584 9.7682 188.891 10.0083L189.107 10.1821L192.353 12.2351ZM166.796 11.5397C166.348 11.8708 165.825 12.0447 165.343 12.351C165.269 12.3924 165.127 12.4834 165.227 12.5414L167.75 13.9321L170.083 12.2682C169.56 11.9785 168.995 11.7301 168.431 11.5563C168.182 11.2831 168.066 10.952 168.024 10.5877L167.908 10.505C167.584 10.894 167.211 11.2417 166.796 11.5397Z"
    fill="#00583D"></path>
  <path
    d="M137.238 34.3129L137.354 34.2798C137.454 34.2633 137.512 34.1805 137.604 34.1225C138.068 33.7914 138.608 33.6176 139.064 33.303L139.122 33.1457C139.064 32.7153 139.081 32.2765 139.106 31.846C139.147 31.1507 139.147 30.4719 139.264 29.7931C139.396 28.8494 139.579 27.9305 139.928 27.0613C139.463 27.3345 139.205 27.856 138.981 28.3527L137.238 34.3129Z"
    fill="#00583D"></path>
  <path
    d="M128.365 16.6639L129.602 16.4735C129.369 16.8957 129.178 17.3427 129.062 17.8063C128.988 18.096 128.888 18.4106 128.905 18.7169C128.946 19.2798 129.195 19.7847 129.394 20.2897C128.44 20.4635 127.41 20.4884 126.564 21.0099C126.506 21.0678 126.39 21.101 126.406 21.2003L126.506 21.8543C125.709 22.1274 124.796 22.5745 124.696 23.4437L124.539 25.2069L119.882 26.1589C118.446 26.548 116.994 26.995 115.881 27.9553C115.665 28.1291 115.45 28.3609 115.167 28.2698C114.196 27.8642 113.209 27.5745 112.221 27.2268C111.25 26.8957 110.279 26.5066 109.274 26.2582C108.461 26.1589 107.622 26.4155 106.967 26.9122C106.892 26.995 106.834 27.1026 106.734 27.1606C106.361 27.0033 106.012 26.8129 105.647 26.5811C105.564 26.5231 105.506 26.4321 105.473 26.3327C105.373 25.7947 105.398 25.2069 105.705 24.7433C105.796 24.6274 105.904 24.495 105.863 24.3543C105.531 23.9072 105.282 23.3857 105.149 22.8311C105.207 22.4089 105.63 22.1523 105.987 21.9619C106.817 21.5397 107.581 20.9768 108.262 20.3394C109.324 19.3294 110.088 18.0546 111.017 16.8957C111.366 16.4735 111.731 16.0678 112.138 15.7202C113.067 15.2152 114.055 14.8923 115.084 14.6937L115.856 13.6341C115.873 13.4933 115.707 13.3857 115.699 13.245C115.657 13.0712 115.782 12.9139 115.856 12.7649C116.047 12.4006 116.379 12.1109 116.695 11.8543C117.085 11.5397 117.533 11.2748 118.039 11.25L119.782 11.192C119.973 11.4404 120.031 11.7549 120.131 12.0198C120.247 12.2765 120.446 12.4669 120.538 12.74C120.671 13.2202 120.579 13.7086 120.538 14.1887L121.318 15.1738C121.119 15.2566 120.895 15.2152 120.679 15.1407C120.48 15.0579 120.289 14.9834 120.073 15.0082C119.982 15.0082 119.857 14.9337 119.816 15.0496L119.326 16.4818C119.251 16.4983 119.177 16.4652 119.11 16.4652C118.737 16.5066 118.454 16.8377 118.064 16.9122C117.873 16.9536 117.674 16.8543 117.483 16.8129C117.284 16.7549 117.093 16.6721 116.869 16.639C116.786 17.0281 117.176 17.3592 117.234 17.7483C117.467 19.0811 116.305 20.2069 115.815 21.4486C115.74 21.6556 115.674 21.8957 115.732 22.1274C116.296 22.8394 117.052 23.3692 117.89 23.6755C117.99 23.6589 118.064 23.601 118.139 23.5182C118.952 22.74 119.533 21.7384 120.405 21.0265L122.663 19.1887C124.389 18.038 126.315 17.1854 128.365 16.6639ZM114.412 25.6457C114.296 25.9188 114.18 26.2086 114.221 26.5149L114.354 26.5397C115.018 26.3245 115.582 25.8443 116.105 25.3725V25.298C115.84 25.0662 115.499 24.9337 115.151 24.9255H114.935L114.412 25.6457Z"
    fill="#00583D"></path>
  <path
    d="M125.593 39.0314C126.713 40.4635 127.975 41.7632 129.378 42.9056C129.469 43.1374 129.494 43.394 129.494 43.6589C129.51 44.2798 129.419 44.9006 129.278 45.5132L129.12 45.8195L125.452 48.7996C125.352 48.9321 125.219 49.048 125.136 49.1887C125.286 49.7351 125.385 50.3145 125.41 50.8775C125.435 51.2665 125.51 51.6887 125.294 52.053C124.696 52.4172 124.281 53.0049 123.7 53.4271C122.405 53.9652 121.061 54.3791 119.683 54.6606C119.475 54.8013 119.309 54.9669 119.118 55.1407C118.438 55.803 118.089 56.7301 117.483 57.442C117.035 57.947 116.537 58.3857 115.989 58.7831C115.699 58.9735 115.275 59.2135 115.06 58.9321C114.786 58.5844 114.844 58.096 114.91 57.6573L114.52 57.5248C114.62 56.3493 114.943 55.1986 115.491 54.1556C115.566 54.1142 115.649 54.0728 115.74 54.0397C115.956 54.0066 116.205 54.1225 116.396 53.9818C116.67 53.8079 116.645 53.3857 116.935 53.2616C117.052 53.2036 117.209 53.1871 117.359 53.1622C118.056 53.0215 118.678 52.5662 118.944 51.9205C119.102 51.5149 119.318 51.1258 119.592 50.7781C120.189 50.0662 121.086 49.7102 121.708 49.0314L121.052 48.0132C122.239 47.144 123.36 46.1589 124.14 44.9337L124.572 46.7384L124.688 46.8377C125.443 46.3576 125.966 45.6043 126.414 44.8096C126.414 44.6192 126.39 44.4205 126.224 44.3212C125.775 44.1473 125.269 44.1887 124.829 44.0066C124.688 43.9486 124.497 43.9073 124.539 43.75L125.161 39.4205L125.36 38.9983C125.452 38.9818 125.535 38.9983 125.593 39.0314ZM121.882 51.639C121.858 51.697 121.799 51.7798 121.824 51.8543C122.015 51.8957 122.198 51.7549 122.405 51.7135L122.58 51.5728L122.563 51.2086L122.447 51.1175C122.214 51.25 122.04 51.4238 121.882 51.639Z"
    fill="#00583D"></path>
  <path
    d="M210.688 38.0795C209.966 37.3675 209.609 36.4901 209.609 35.4387C209.609 34.3874 209.974 33.5017 210.696 32.7815C211.427 32.053 212.323 31.697 213.386 31.697C214.44 31.697 215.32 32.053 216.042 32.7649C216.764 33.4768 217.121 34.3543 217.121 35.4056C217.121 36.457 216.755 37.3427 216.033 38.0629C215.311 38.7831 214.415 39.1474 213.344 39.1474C212.29 39.1474 211.41 38.7914 210.688 38.0795ZM211.227 33.2864C210.663 33.8493 210.389 34.553 210.389 35.4139C210.389 36.2748 210.671 36.9868 211.227 37.5497C211.792 38.1126 212.497 38.3858 213.369 38.3858C214.232 38.3858 214.946 38.1043 215.502 37.5497C216.067 36.9868 216.34 36.2831 216.34 35.4139C216.34 34.553 216.058 33.8411 215.502 33.2864C214.938 32.7235 214.232 32.4503 213.369 32.4503C212.497 32.4503 211.792 32.7235 211.227 33.2864ZM212.024 37.2268V33.6093H213.601C213.991 33.6093 214.299 33.7169 214.539 33.9321C214.78 34.1474 214.896 34.4288 214.896 34.7765C214.896 35.3394 214.597 35.7036 214.016 35.8775L215.054 37.2351H214.257L213.278 35.9189H212.722V37.2351H212.024V37.2268ZM213.518 34.1722H212.722V35.3808H213.518C213.991 35.3808 214.232 35.1821 214.232 34.7765C214.232 34.3709 213.991 34.1722 213.518 34.1722Z"
    fill="#00583D"></path>
</svg>
