<svg id="Group_667" data-name="Group 667" xmlns="http://www.w3.org/2000/svg" viewBox="0 0 148.727 128.167">
  <defs>
    <style>
      .cls-1 {
        fill: #00853f;
      }

      .cls-2 {
        fill: #7ac143;
      }

      .cls-3 {
        fill-rule: evenodd;
      }
    </style>
  </defs>
  <path id="Path_1261" data-name="Path 1261" class="cls-1" d="M10.5,140.994c13.572,4.632,31.289,10.078,52.42,11.947,9.265.813,15.848.731,24.463.731,5.283,0,5.933-2.438-.569-6.5-5.689-3.413-19.911-8.452-39.173-10.321C18.871,134.086,10.5,140.994,10.5,140.994Z" transform="translate(-1.967 -25.508)"/>
  <path id="Path_1262" data-name="Path 1262" class="cls-2" d="M94.895,135.893A156.834,156.834,0,0,0,72.3,130.855c-17.067-2.6-28.2-1.219-28.2-1.219s19.1-5.364,46.325-5.039c19.749.244,44.212,4.145,66.561,13.491a194.775,194.775,0,0,1-27.714,8.371c-6.1,1.3-7.152.731-14.466-2.6A128.138,128.138,0,0,0,94.895,135.893Z" transform="translate(-8.259 -23.333)"/>
  <path id="Path_1263" data-name="Path 1263" class="cls-3" d="M25.032,30.477V28.608H15.6V24.463h0l4.551-11.622.975-.244V11.541a3.341,3.341,0,0,1-.975-.569,7.45,7.45,0,0,1-.894-2.682c-.081-.569-3.9-2.6-4.632-2.926V5.2c0-.65-.488-1.625-1.138-1.625h-.163V3.007a7.672,7.672,0,0,0,.731-.244.628.628,0,0,0,.569-.65c0-.325-.325-.488-.65-.65-.163-.081-.406-.244-.731-.406h0C13.247.488,12.922,0,12.435,0a1,1,0,0,0-.813,1.057h0a5.9,5.9,0,0,0-.731.406c-.325.163-.65.325-.65.65s.325.569.65.65a7.672,7.672,0,0,0,.731.244v.488h-.163c-.65,0-1.138,1.057-1.138,1.625v.163c-.65.406-4.47,2.438-4.632,2.926S5.283,10.4,4.8,10.89a3.341,3.341,0,0,1-.975.569v1.057l1.057.325L9.427,24.463h0v4.145H0v1.869H9.427v41.53a5.273,5.273,0,0,0-2.113,4.226L3.088,111.017c0,2.926,6.5,5.2,9.427,5.2s9.427-2.357,9.427-5.2L17.717,76.232A5.273,5.273,0,0,0,15.6,72.006V30.477Zm-14.06-10.89L9.1,20.887,6.014,13.166l4.145.894c-.731,2.438.163,3.982,1.057,4.714C11.053,19.261,10.972,19.586,10.972,19.586Zm1.057-1.625s-2.113-1.138-.65-4.47l1.138-2.438c.894,2.032.488,1.138,1.057,2.357.325.731,1.3,2.926-.488,4.632H12.028Zm2.113,1.625s-.081-.325-.244-.813a4.4,4.4,0,0,0,1.057-4.714l4.064-.894-3.088,7.721Z"/>
  <g id="Group_478" data-name="Group 478" transform="translate(33.89 5.933)">
    <path id="Path_1264" data-name="Path 1264" d="M55.272,9.669H49.5V20.153H47.47V9.669H41.7V7.8H55.272Z" transform="translate(-41.7 -7.394)"/>
    <path id="Path_1265" data-name="Path 1265" d="M75.623,13.883a5.793,5.793,0,0,1-2.438,4.876A8.689,8.689,0,0,1,67.9,20.385a8.938,8.938,0,0,1-5.364-1.625A5.793,5.793,0,0,1,60.1,13.883a6,6,0,0,1,2.438-4.876A8.472,8.472,0,0,1,67.9,7.3a8.086,8.086,0,0,1,5.283,1.707A5.793,5.793,0,0,1,75.623,13.883Zm-2.032,0A4.072,4.072,0,0,0,71.8,10.388a7.256,7.256,0,0,0-8.046.163,4.381,4.381,0,0,0-.081,6.746,6.18,6.18,0,0,0,4.145,1.3,6.18,6.18,0,0,0,4.145-1.3A4.313,4.313,0,0,0,73.591,13.883Z" transform="translate(-45.146 -7.3)"/>
    <path id="Path_1266" data-name="Path 1266" d="M99.88,7.8,95.9,20.153H93.3L90.29,9.832,87.283,20.153h-2.6L80.7,7.8h2.276l3.088,10.321L89.071,7.8H91.59L94.6,18.2,97.6,7.8Z" transform="translate(-49.004 -7.394)"/>
    <path id="Path_1267" data-name="Path 1267" d="M121.416,20.153H118.9L109.632,9.994V20.153H107.6V7.8h2.519l9.265,10.159V7.8h2.032Z" transform="translate(-54.042 -7.394)"/>
    <path id="Path_1268" data-name="Path 1268" d="M151.2,13.883a5.793,5.793,0,0,1-2.438,4.876,8.767,8.767,0,0,1-5.364,1.625,8.939,8.939,0,0,1-5.364-1.625,5.793,5.793,0,0,1-2.438-4.876,6,6,0,0,1,2.438-4.876A8.472,8.472,0,0,1,143.4,7.3a8.086,8.086,0,0,1,5.283,1.707A5.669,5.669,0,0,1,151.2,13.883Zm-2.113,0a4.072,4.072,0,0,0-1.788-3.495,7.256,7.256,0,0,0-8.046.163,4.381,4.381,0,0,0-.081,6.746,7.256,7.256,0,0,0,8.29,0A4.083,4.083,0,0,0,149.091,13.883Z" transform="translate(-59.286 -7.3)"/>
    <path id="Path_1269" data-name="Path 1269" d="M171.191,9.669H160.95v3.17h7.071v1.869H160.95v5.445H159V7.8h12.191Z" transform="translate(-63.669 -7.394)"/>
  </g>
  <g id="Group_479" data-name="Group 479" transform="translate(30.477 29.173)">
    <path id="Path_1270" data-name="Path 1270" d="M53.673,41.2a8.89,8.89,0,0,0-6.1-2.438c-2.194,0-4.958.894-4.958,3.576,0,5.364,13.328,5.283,13.328,12.516,0,4.226-4.307,8.127-10.4,8.127a19.88,19.88,0,0,1-6.908-1.138L37.5,56.968a13.066,13.066,0,0,0,8.452,3.251c2.194,0,5.526-1.3,5.526-4.064,0-6.1-13.329-5.039-13.329-13.329,0-4.958,4.958-6.827,9.671-6.827a17.475,17.475,0,0,1,5.77.894V41.2Z" transform="translate(-37.5 -35.916)"/>
    <path id="Path_1271" data-name="Path 1271" d="M72.109,57.368c0,2.194,0,3.738,2.032,4.958v.081H66.5v-.081c1.951-.731,1.707-3.576,1.707-5.364V39.488H64.8a6.806,6.806,0,0,0-4.632,1.544H60L61.382,36.4h.081a9.162,9.162,0,0,0,1.463.244h15.36a4.157,4.157,0,0,0,1.788-.244h.081l-1.219,4.632h-.081c-.488-1.382-2.032-1.544-3.332-1.544H72.028v17.88Z" transform="translate(-41.714 -35.991)"/>
    <path id="Path_1272" data-name="Path 1272" d="M112.064,49.146c0,7.965-6.5,13.816-14.222,13.816C90.2,62.963,83.7,57.436,83.7,49.39c0-7.477,6.339-13.654,14.466-13.491A13.355,13.355,0,0,1,112.064,49.146ZM88.17,48.984c0,5.526,3.82,11.134,9.915,11.134,5.852,0,9.59-4.389,9.59-10.159,0-5.689-3.576-11.215-9.671-11.215C91.99,38.744,88.17,43.132,88.17,48.984Z" transform="translate(-46.153 -35.896)"/>
    <path id="Path_1273" data-name="Path 1273" d="M125.2,57.424c0,2.194,0,3.738,2.032,4.958v.081H120.4v-.081c2.032-1.219,2.032-2.763,2.032-4.958V41.739c0-2.194,0-3.738-2.032-4.958V36.7h5.608a2.811,2.811,0,0,0,.569.975l.569.813,14.141,18.123V41.739c0-2.194,0-3.738-2.032-4.958V36.7h6.827v.081c-2.032,1.138-2.032,2.763-2.032,4.958V63.763a10.254,10.254,0,0,1-5.608-4.47L125.195,42.226v15.2Z" transform="translate(-53.026 -36.047)"/>
    <path id="Path_1274" data-name="Path 1274" d="M167.56,57.424c0,2.357,0,3.495,1.95,4.958v.081h-7.558v-.081c1.869-.975,1.625-3.495,1.625-5.364v-5.77l-6.42-10.484c-1.057-1.707-1.788-3.007-3.657-4.064h3.495a3.439,3.439,0,0,1,2.926,1.057L166.1,48l4.8-7.314c.65-.975,1.544-2.844-.65-3.9V36.7h6.746l-9.509,14.466v6.258Z" transform="translate(-59.225 -36.047)"/>
  </g>
  <g id="Group_481" data-name="Group 481" transform="translate(31.289 63.554)">
    <g id="Group_480" data-name="Group 480">
      <path id="Path_1275" data-name="Path 1275" d="M48.5,78.2c5.364,0,9.427,2.438,9.427,6.827,0,4.47-4.389,7.4-9.021,7.4a6.409,6.409,0,0,1-3.007-.569c3.495-.163,7.314-2.276,7.314-6.014,0-3.413-2.519-4.8-5.852-4.8a16.113,16.113,0,0,0-2.844.244V99.005c0,2.194-.081,3.738,2.113,4.958v.081H38.5v-.081c2.113-.731,1.869-3.576,1.869-5.364V83.726c0-1.788.244-4.632-1.788-5.445V78.2Z" transform="translate(-38.5 -78.2)"/>
      <path id="Path_1276" data-name="Path 1276" d="M76.322,100.793c2.844,0,5.2-.406,7.233-2.032h.081l-2.113,5.2H64.7v-.081c2.113-.731,1.869-3.576,1.869-5.364V83.726c0-1.788.244-4.632-1.869-5.445V78.2h7.8v.081c-2.113.731-1.788,3.657-1.788,5.445v17.067Z" transform="translate(-43.407 -78.2)"/>
      <path id="Path_1277" data-name="Path 1277" d="M97.859,94.31l-2.113,5.526c-.894,2.194-1.138,3.332.813,4.064v.081H89V103.9c2.357-1.138,3.088-3.332,3.982-5.526l6.827-16.336c.569-1.382,1.382-3.088-.65-3.657V78.3h6.5l8.533,20.074c.975,2.276,1.707,4.47,3.982,5.526v.081h-8.371V103.9c2.032-.894,1.707-1.3.569-4.064L108.18,94.31Zm5.12-12.76-4.064,9.915h8.046Z" transform="translate(-47.958 -78.219)"/>
      <path id="Path_1278" data-name="Path 1278" d="M129.788,83.726c0-1.788.325-4.632-1.788-5.445V78.2h7.8v.081c-2.032.731-1.788,3.657-1.788,5.445V98.518c0,1.788-.244,4.632,1.788,5.364v.081H128v-.081c2.032-.731,1.788-3.576,1.788-5.364Z" transform="translate(-55.262 -78.2)"/>
      <path id="Path_1279" data-name="Path 1279" d="M146.02,98.924c0,2.194-.081,3.738,2.113,4.958v.081H140.9v-.081c2.194-1.219,2.194-2.763,2.194-4.958V83.239c0-2.194,0-3.738-2.113-4.958V78.2H147a2.072,2.072,0,0,0,.65.975l.569.813L163.25,98.111V83.239c0-2.194,0-3.738-2.113-4.958V78.2h7.233v.081c-2.113,1.138-2.113,2.763-2.113,4.958v22.025c-2.926-.975-4.145-2.276-6.014-4.47l-14.06-17.067v15.2Z" transform="translate(-57.678 -78.2)"/>
    </g>
  </g>
</svg>
