<svg xmlns="http://www.w3.org/2000/svg" width="565.34" height="228.17" viewBox="0 0 565.34 228.17"><defs><style>.a{fill:#4c6796;}.b{fill:#f5d010;}.c{fill:#4978bc;}</style></defs><path class="a" d="M244.51,43.8"/><path class="b" d="M270.32,30.93c-9.92-8.75-21.14-12.51-34.19-10.51-12.82,2-22.81,8.16-29.68,20,.55-12.51,13.29-25.74,27.7-28.35C251.15,9,266.53,20.32,270.32,30.93ZM220.84,44.73c7.56-9.93,17.79-14.82,30.58-16.13-12.79-5.17-28.16-.4-37.16,10.94-10.58,13.34-8.1,30.46-1.68,38.6C210.3,65.35,213.4,54.5,220.84,44.73ZM296.4,25C292.77,10.22,278.55.09,268.55,0c22.18,12.06,27.72,44.93,9.3,64.19A34.47,34.47,0,0,0,296.4,25ZM268.52,5.92c-12.66-8.45-30-6.31-37.42.38,24.5-6.1,50.8,14.39,50.23,41A34.47,34.47,0,0,0,268.52,5.92Zm17,89.83a39.55,39.55,0,0,1-19.34-.18c.41,2.22.84,4.27,1.26,6.1A35.17,35.17,0,0,0,285.49,95.75Zm-4.47-5c14.45-2.38,27.41-15.4,28.16-27.9-7.07,11.75-17.15,17.78-30,19.54a40.75,40.75,0,0,1-15-.61c.24,2.63.55,5.18.9,7.6A32.75,32.75,0,0,0,281,90.7Zm13.81-32.55C287.19,68,276.91,72.81,264.11,74c12.74,5.28,28.16.65,37.25-10.62,10.69-13.25,8.36-30.39,2-38.59C305.55,37.62,302.35,48.44,294.83,58.15ZM238,38.23a34.45,34.45,0,0,0-19.1,38.91c2.55,11.08,11,19.65,19.34,23.37,0-1.43,0-2.82,0-4.18C223.45,81.33,221.89,54.6,238,38.23Zm-3.42,17.3C230.27,63.16,231,77.47,238.66,88c.33-4.51.84-8.53,1.42-12A37.87,37.87,0,0,1,234.59,55.53Z"/><path class="c" d="M18.42,200.17a65.35,65.35,0,0,1-17.31-2.23V179.28H7.54c.74,4.2,1.36,8,1.73,11.37a42.07,42.07,0,0,0,9.64,1.24c10.88,0,19.91-4.33,19.91-15.7C38.83,156.4,0,163.94,0,137.61c0-13.23,10.63-23.12,28.81-23.12a70.48,70.48,0,0,1,15.46,1.73v18.18H37.84c-.74-4.2-1.36-8-1.61-11.25a47.89,47.89,0,0,0-7.91-.74c-12.24,0-18.55,5.69-18.55,14.22,0,19.17,38.83,12.24,38.83,38.33C48.59,189.66,37.09,200.17,18.42,200.17Zm84.89-51.06L82.59,205.18c-6.34,17.22-11.55,23-23.9,23a43.58,43.58,0,0,1-7.47-.68l.91-7.7a25.39,25.39,0,0,0,7.14,1.13c6.8,0,10.19-3.28,14.72-15.18l2.61-6.68H74.66L56.54,149.11A50,50,0,0,1,49,147.64v-4.87H74.21v4.87a40.36,40.36,0,0,1-8.15,1.47l9.74,27.64c1.81,5.21,3.06,9.29,4.3,13.59h.11c1-3.51,3.17-10.08,5.55-16.76l8.49-24.47a39.17,39.17,0,0,1-8-1.47v-4.87H110.9v4.87A50,50,0,0,1,103.32,149.11Zm35.11,45.08v4.87h-28v-4.87a64.22,64.22,0,0,1,9.85-1.47V123.18c-2.72-.45-6.57-.91-9.85-1.13v-4.87a118.31,118.31,0,0,1,18.24-.79v76.34A62.68,62.68,0,0,1,138.43,194.19Zm95.86,4.87a76.8,76.8,0,0,1,.57-11.89h-.23c-2.72,7.13-10,12.91-19.59,12.91-8.95,0-15.4-4.76-15.4-13.7,0-11.78,12.23-19.71,34.2-19.82V161.8c0-8.61-2.94-13.25-12.68-13.25A42.37,42.37,0,0,0,209.93,150c-.34,3.06-.91,6.46-1.47,9.85h-5.21V144.81a55.8,55.8,0,0,1,19.25-3.06c15.52,0,19.93,7.7,19.93,18.35v32.16c2.72.45,6.46.91,9.63,1.13v4.87A113.47,113.47,0,0,1,234.29,199.06Zm-.45-26.28c-20.61,0-25.71,6.34-25.71,12,0,5.1,3.62,8.38,9.17,8.38,10,0,16.54-9.85,16.54-19.59Zm70.3-10.19c0-8.83-2.38-13.93-10.53-13.93-10.08,0-17.22,10-17.22,23.33v20.73a49.31,49.31,0,0,1,9.4,1.47v4.87H258v-4.87a64.22,64.22,0,0,1,9.85-1.47V149.57c-2.72-.45-6.57-.91-9.85-1.13v-4.87a119,119,0,0,1,18.24-.79,89.53,89.53,0,0,1-.91,12.46l.11.11a21.07,21.07,0,0,1,20.27-13.7c12.91,0,16.88,8.15,16.88,18.12v33a59.2,59.2,0,0,1,9.63,1.47v4.87H304.13Zm39.06,36.47v-5.32a70.48,70.48,0,0,1,10.76-1.61V131.91a70.26,70.26,0,0,1-10.76-1.61V125H374.1v5.32a70.23,70.23,0,0,1-10.76,1.61v59.36h23.49c.37-3.21,1.11-7.54,2-11.62H395v19.41Zm93.41,0a76.81,76.81,0,0,1,.57-11.89h-.23c-2.72,7.13-10,12.91-19.59,12.91-8.95,0-15.4-4.76-15.4-13.7,0-11.78,12.23-19.71,34.21-19.82V161.8c0-8.61-2.95-13.25-12.69-13.25A42.37,42.37,0,0,0,412.25,150c-.34,3.06-.91,6.46-1.47,9.85h-5.21V144.81a55.8,55.8,0,0,1,19.25-3.06c15.52,0,19.93,7.7,19.93,18.35v32.16c2.72.45,6.46.91,9.63,1.13v4.87A113.47,113.47,0,0,1,436.6,199.06Zm-.45-26.28c-20.61,0-25.71,6.34-25.71,12,0,5.1,3.62,8.38,9.17,8.38,10,0,16.54-9.85,16.54-19.59Zm64.29,26.28-22.31-29.79v23.44a42,42,0,0,1,9.06,1.47v4.87h-27.3v-4.87a64.22,64.22,0,0,1,9.85-1.47V123.18c-2.72-.45-6.57-.91-9.85-1.13v-4.87a118.31,118.31,0,0,1,18.24-.79V168.6l17.78-19.48a32.39,32.39,0,0,1-7.25-1.47v-4.87h25.6v4.87a44.33,44.33,0,0,1-8.38,1.47l-18,19.37,18.8,24c2.72.34,6.12.91,9.4,1.59v5Zm64.67-29.9h-37.6c-.57,16.88,6.12,23.9,18.69,23.9a38.05,38.05,0,0,0,16.31-3.62l.79,7.25a49,49,0,0,1-18.57,3.4c-17,0-26.05-9.17-26.05-28.88,0-16.88,9.06-29.45,24.69-29.45s22,10.76,22,23.22A30.5,30.5,0,0,1,565.11,169.16Zm-22.2-21c-7.93,0-13.59,5.78-15,14.61H556.5C556.73,154.1,551.52,148.21,542.91,148.21ZM201.32,137c-2.27-.38-10.5-1.25-15.08,5.11a35.2,35.2,0,0,0-3.49,6.85,2.45,2.45,0,0,0-.1.24c-4.71,10.77-10.93,31.37-10.93,31.37-1.13,3.17-2.15,6.68-3.05,10h-.23c-.91-3.39-1.93-6.68-3.17-10.19l-10.65-31.26a53.09,53.09,0,0,0,8.72-1.47v-4.87H137.63v4.87a50.29,50.29,0,0,0,7.59,1.47l18.12,50h9.86l18-48.86,0,0c2.31-5.62,4.52-9.43,10.14-12.71A.22.22,0,0,0,201.32,137Zm113.17-19.62a.36.36,0,0,0-.48-.16h0l-1.26.66c-.82.43-2,1.05-3.57,1.79s-3.42,1.55-5.61,2.36a60.17,60.17,0,0,1-7.48,2.2,65.33,65.33,0,0,1-9.09,1.44,76,76,0,0,1-10.3.18c-3.59-.16-7.29-.54-11-1.07l-1-.15A75.4,75.4,0,0,1,256.55,107c-.75-2.29-1.46-4.72-2.09-7.27-3-11.84-4.27-26.17-1-40.62.83-.27,5.88-.53,10.7,2.41l0,1.26a5.89,5.89,0,0,0,3.86-.31.93.93,0,0,0,.5-.72c.08-.5.19-1.31.27-2a1,1,0,0,0-.14-.63c-2.25-3.48-6.53-5.21-11.53-5.9,0,0,2.17-1.89,7.5-.56,0,0-1.21-1.86-9.65-2.73l-1.16-.11c1-3.51,1.82-5.75,1.82-5.75A19.66,19.66,0,0,1,266,46.69l-.16,1.38s3.72.51,5.88-1.65l-10-12.3-14.51,6.24c.6,2.39,3.52,3.31,3.52,3.31-.7,1.58-2.54,6.16-2.54,6.16a10.78,10.78,0,0,0-3.61.84,1,1,0,0,0-.56.56l-2.14,5.61a1,1,0,0,0,.18,1h0A4.94,4.94,0,0,0,243.53,59a4.76,4.76,0,0,0,.86.34c-.19.44-2.57,6.18-4.31,16.61-.58,3.48-1.09,7.5-1.42,12q-.3,3.92-.38,8.34c0,1.36,0,2.75,0,4.18a177.29,177.29,0,0,0,1.29,19.7c-2.88-.38-5.74-.66-8.53-.86a101.51,101.51,0,0,0-10.95-.22,70.67,70.67,0,0,0-9.82,1.09,52,52,0,0,0-8.11,2.13,42.14,42.14,0,0,0-5.87,2.67c-.78.43-1.46.85-2,1.24a17.33,17.33,0,0,0-1.43,1l-1.13.89a.19.19,0,0,0-.07.21.19.19,0,0,0,.24.12l1.37-.45c.44-.17,1-.31,1.63-.51s1.36-.39,2.19-.59a56.46,56.46,0,0,1,6-1.17c2.33-.29,4.93-.58,7.81-.66s6-.07,9.26,0c1.65.11,3.34.17,5.07.31s3.5.25,5.3.49,3.63.38,5.48.68,3.72.49,5.6.84c3.79.62,7.54,1.35,11.46,2.09,1.91.36,3.95.7,5.95,1s4,.51,6,.7a105.92,105.92,0,0,0,11.73.45,70,70,0,0,0,20.65-3.24,46.79,46.79,0,0,0,7.67-3.4,43.11,43.11,0,0,0,5.35-3.54c1.4-1.09,2.42-2,3.11-2.67l1-1A.35.35,0,0,0,314.49,117.41ZM259.19,74.08q.07-3,.36-6l-3-.13c-.23,1.72-.39,3.72-.47,6Zm-.05,6.12L255.92,80l0,.33a39.93,39.93,0,0,0,.27,5.68l3.31.17C259.3,84.25,259.18,82.24,259.14,80.2Z"/></svg>